STARTFONT 2.1
FONT -DIGITAL-VT220-Bold-r-Normal-136col-40-400-150-75-c-340-iso10646-1
SIZE 40 75 75
FONTBOUNDINGBOX 34 40 0 -8
STARTPROPERTIES 21
FOUNDRY "DIGITAL"
FAMILY_NAME "vt220"
WEIGHT_NAME "Bold"
RELATIVE_SETWIDTH 50
SLANT "r"
SETWIDTH_NAME "Normal"
ADD_STYLE_NAME "136col"
PIXEL_SIZE 40
POINT_SIZE 400
RESOLUTION_X 75
RESOLUTION_Y 75
SPACING "c"
CHARSET_REGISTRY "ISO10646"
CHARSET_ENCODING "1"
CAP_HEIGHT 28
X_HEIGHT 20
WEIGHT 10
QUAD_WIDTH 34
FONT_ASCENT 32
FONT_DESCENT 8
AVERAGE_WIDTH 340
ENDPROPERTIES
CHARS 237
STARTCHAR U+00FD
ENCODING 253
SWIDTH 1000 0
DWIDTH 34 0
BBX 34 40 0 -8
BITMAP
0000000000
0000000000
0000000000
0000000000
0000000000
0000000000
0000000000
0000000000
0000000000
0000000000
0000000000
0000000000
0000000000
0000000000
0000000000
0000000000
0000000000
0000000000
0000000000
0000000000
0000000000
0000000000
0000000000
0000000000
0000000000
0000000000
0000000000
0000000000
0000000000
0000000000
0000000000
0000000000
0000000000
0000000000
0000000000
0000000000
0000000000
0000000000
0000000000
0000000000
ENDCHAR
STARTCHAR U+25A1
ENCODING 9633
SWIDTH 1000 0
DWIDTH 34 0
BBX 34 40 0 -8
BITMAP
0000000000
0000000000
0000000000
0000000000
fffffffc00
fffffffc00
fffffffc00
fffffffc00
fc0001fc00
fc0001fc00
fc0001fc00
fc0001fc00
fc0001fc00
fc0001fc00
fc0001fc00
fc0001fc00
fc0001fc00
fc0001fc00
fc0001fc00
fc0001fc00
fc0001fc00
fc0001fc00
fc0001fc00
fc0001fc00
fc0001fc00
fc0001fc00
fc0001fc00
fc0001fc00
fffffffc00
fffffffc00
fffffffc00
fffffffc00
0000000000
0000000000
0000000000
0000000000
0000000000
0000000000
0000000000
0000000000
ENDCHAR
STARTCHAR U+00FE
ENCODING 254
SWIDTH 1000 0
DWIDTH 34 0
BBX 34 40 0 -8
BITMAP
0000000000
0000000000
0000000000
0000000000
fc00000000
fc00000000
fc00000000
fc00000000
fc00000000
fc00000000
fc00000000
fc00000000
fdffffc000
fdffffc000
fdffffc000
fdffffc000
ffc001fc00
ffc001fc00
ffc001fc00
ffc001fc00
ffc001fc00
ffc001fc00
ffc001fc00
ffc001fc00
fdffffc000
fdffffc000
fdffffc000
fdffffc000
fc00000000
fc00000000
fc00000000
fc00000000
fc00000000
fc00000000
fc00000000
fc00000000
fc00000000
fc00000000
fc00000000
fc00000000
ENDCHAR
STARTCHAR U+00FF
ENCODING 255
SWIDTH 1000 0
DWIDTH 34 0
BBX 34 40 0 -8
BITMAP
0000000000
0000000000
0000000000
0000000000
1fc01fc000
1fc01fc000
1fc01fc000
1fc01fc000
0000000000
0000000000
0000000000
0000000000
fc001fc000
fc001fc000
fc001fc000
fc001fc000
fc001fc000
fc001fc000
fc001fc000
fc001fc000
fc01ffc000
fc01ffc000
fc01ffc000
fc01ffc000
1fffdfc000
1fffdfc000
1fffdfc000
1fffdfc000
00001fc000
00001fc000
00001fc000
00001fc000
fc001fc000
fc001fc000
fc001fc000
fc001fc000
1ffffc0000
1ffffc0000
1ffffc0000
1ffffc0000
ENDCHAR
STARTCHAR U+00FC
ENCODING 252
SWIDTH 1000 0
DWIDTH 34 0
BBX 34 40 0 -8
BITMAP
0000000000
0000000000
0000000000
0000000000
1fc01fc000
1fc01fc000
1fc01fc000
1fc01fc000
0000000000
0000000000
0000000000
0000000000
fc001fc000
fc001fc000
fc001fc000
fc001fc000
fc001fc000
fc001fc000
fc001fc000
fc001fc000
fc001fc000
fc001fc000
fc001fc000
fc001fc000
fc001fc000
fc001fc000
fc001fc000
fc001fc000
1ffffdfc00
1ffffdfc00
1ffffdfc00
1ffffdfc00
0000000000
0000000000
0000000000
0000000000
0000000000
0000000000
0000000000
0000000000
ENDCHAR
STARTCHAR U+00FB
ENCODING 251
SWIDTH 1000 0
DWIDTH 34 0
BBX 34 40 0 -8
BITMAP
01fffc0000
01fffc0000
01fffc0000
01fffc0000
1fc01fc000
1fc01fc000
1fc01fc000
1fc01fc000
0000000000
0000000000
0000000000
0000000000
fc001fc000
fc001fc000
fc001fc000
fc001fc000
fc001fc000
fc001fc000
fc001fc000
fc001fc000
fc001fc000
fc001fc000
fc001fc000
fc001fc000
fc001fc000
fc001fc000
fc001fc000
fc001fc000
1ffffdfc00
1ffffdfc00
1ffffdfc00
1ffffdfc00
0000000000
0000000000
0000000000
0000000000
0000000000
0000000000
0000000000
0000000000
ENDCHAR
STARTCHAR U+00FA
ENCODING 250
SWIDTH 1000 0
DWIDTH 34 0
BBX 34 40 0 -8
BITMAP
0000000000
0000000000
0000000000
0000000000
001ffc0000
001ffc0000
001ffc0000
001ffc0000
1ffc000000
1ffc000000
1ffc000000
1ffc000000
fc001fc000
fc001fc000
fc001fc000
fc001fc000
fc001fc000
fc001fc000
fc001fc000
fc001fc000
fc001fc000
fc001fc000
fc001fc000
fc001fc000
fc001fc000
fc001fc000
fc001fc000
fc001fc000
1ffffdfc00
1ffffdfc00
1ffffdfc00
1ffffdfc00
0000000000
0000000000
0000000000
0000000000
0000000000
0000000000
0000000000
0000000000
ENDCHAR
STARTCHAR U+00F9
ENCODING 249
SWIDTH 1000 0
DWIDTH 34 0
BBX 34 40 0 -8
BITMAP
0000000000
0000000000
0000000000
0000000000
1ffc000000
1ffc000000
1ffc000000
1ffc000000
001ffc0000
001ffc0000
001ffc0000
001ffc0000
fc001fc000
fc001fc000
fc001fc000
fc001fc000
fc001fc000
fc001fc000
fc001fc000
fc001fc000
fc001fc000
fc001fc000
fc001fc000
fc001fc000
fc001fc000
fc001fc000
fc001fc000
fc001fc000
1ffffdfc00
1ffffdfc00
1ffffdfc00
1ffffdfc00
0000000000
0000000000
0000000000
0000000000
0000000000
0000000000
0000000000
0000000000
ENDCHAR
STARTCHAR U+00F8
ENCODING 248
SWIDTH 1000 0
DWIDTH 34 0
BBX 34 40 0 -8
BITMAP
0000000000
0000000000
0000000000
0000000000
0000000000
0000000000
0000000000
0000000000
000001fc00
000001fc00
000001fc00
000001fc00
1fffffc000
1fffffc000
1fffffc000
1fffffc000
fc01fdfc00
fc01fdfc00
fc01fdfc00
fc01fdfc00
fc1fc1fc00
fc1fc1fc00
fc1fc1fc00
fc1fc1fc00
fdfc01fc00
fdfc01fc00
fdfc01fc00
fdfc01fc00
1fffffc000
1fffffc000
1fffffc000
1fffffc000
fc00000000
fc00000000
fc00000000
fc00000000
0000000000
0000000000
0000000000
0000000000
ENDCHAR
STARTCHAR U+0153
ENCODING 339
SWIDTH 1000 0
DWIDTH 34 0
BBX 34 40 0 -8
BITMAP
0000000000
0000000000
0000000000
0000000000
0000000000
0000000000
0000000000
0000000000
0000000000
0000000000
0000000000
0000000000
1ffdffc000
1ffdffc000
1ffdffc000
1ffdffc000
fc1fc1fc00
fc1fc1fc00
fc1fc1fc00
fc1fc1fc00
fc1ffffc00
fc1ffffc00
fc1ffffc00
fc1ffffc00
fc1fc00000
fc1fc00000
fc1fc00000
fc1fc00000
1ffdfffc00
1ffdfffc00
1ffdfffc00
1ffdfffc00
0000000000
0000000000
0000000000
0000000000
0000000000
0000000000
0000000000
0000000000
ENDCHAR
STARTCHAR U+00F6
ENCODING 246
SWIDTH 1000 0
DWIDTH 34 0
BBX 34 40 0 -8
BITMAP
0000000000
0000000000
0000000000
0000000000
1fc01fc000
1fc01fc000
1fc01fc000
1fc01fc000
0000000000
0000000000
0000000000
0000000000
1fffffc000
1fffffc000
1fffffc000
1fffffc000
fc0001fc00
fc0001fc00
fc0001fc00
fc0001fc00
fc0001fc00
fc0001fc00
fc0001fc00
fc0001fc00
fc0001fc00
fc0001fc00
fc0001fc00
fc0001fc00
1fffffc000
1fffffc000
1fffffc000
1fffffc000
0000000000
0000000000
0000000000
0000000000
0000000000
0000000000
0000000000
0000000000
ENDCHAR
STARTCHAR U+00F5
ENCODING 245
SWIDTH 1000 0
DWIDTH 34 0
BBX 34 40 0 -8
BITMAP
1ffc1fc000
1ffc1fc000
1ffc1fc000
1ffc1fc000
fc1ffc0000
fc1ffc0000
fc1ffc0000
fc1ffc0000
0000000000
0000000000
0000000000
0000000000
1fffffc000
1fffffc000
1fffffc000
1fffffc000
fc0001fc00
fc0001fc00
fc0001fc00
fc0001fc00
fc0001fc00
fc0001fc00
fc0001fc00
fc0001fc00
fc0001fc00
fc0001fc00
fc0001fc00
fc0001fc00
1fffffc000
1fffffc000
1fffffc000
1fffffc000
0000000000
0000000000
0000000000
0000000000
0000000000
0000000000
0000000000
0000000000
ENDCHAR
STARTCHAR U+00F4
ENCODING 244
SWIDTH 1000 0
DWIDTH 34 0
BBX 34 40 0 -8
BITMAP
01fffc0000
01fffc0000
01fffc0000
01fffc0000
1fc01fc000
1fc01fc000
1fc01fc000
1fc01fc000
0000000000
0000000000
0000000000
0000000000
1fffffc000
1fffffc000
1fffffc000
1fffffc000
fc0001fc00
fc0001fc00
fc0001fc00
fc0001fc00
fc0001fc00
fc0001fc00
fc0001fc00
fc0001fc00
fc0001fc00
fc0001fc00
fc0001fc00
fc0001fc00
1fffffc000
1fffffc000
1fffffc000
1fffffc000
0000000000
0000000000
0000000000
0000000000
0000000000
0000000000
0000000000
0000000000
ENDCHAR
STARTCHAR U+00F3
ENCODING 243
SWIDTH 1000 0
DWIDTH 34 0
BBX 34 40 0 -8
BITMAP
0000000000
0000000000
0000000000
0000000000
001ffc0000
001ffc0000
001ffc0000
001ffc0000
1ffc000000
1ffc000000
1ffc000000
1ffc000000
1fffffc000
1fffffc000
1fffffc000
1fffffc000
fc0001fc00
fc0001fc00
fc0001fc00
fc0001fc00
fc0001fc00
fc0001fc00
fc0001fc00
fc0001fc00
fc0001fc00
fc0001fc00
fc0001fc00
fc0001fc00
1fffffc000
1fffffc000
1fffffc000
1fffffc000
0000000000
0000000000
0000000000
0000000000
0000000000
0000000000
0000000000
0000000000
ENDCHAR
STARTCHAR U+00F2
ENCODING 242
SWIDTH 1000 0
DWIDTH 34 0
BBX 34 40 0 -8
BITMAP
0000000000
0000000000
0000000000
0000000000
01ffc00000
01ffc00000
01ffc00000
01ffc00000
0001ffc000
0001ffc000
0001ffc000
0001ffc000
1fffffc000
1fffffc000
1fffffc000
1fffffc000
fc0001fc00
fc0001fc00
fc0001fc00
fc0001fc00
fc0001fc00
fc0001fc00
fc0001fc00
fc0001fc00
fc0001fc00
fc0001fc00
fc0001fc00
fc0001fc00
1fffffc000
1fffffc000
1fffffc000
1fffffc000
0000000000
0000000000
0000000000
0000000000
0000000000
0000000000
0000000000
0000000000
ENDCHAR
STARTCHAR U+00F1
ENCODING 241
SWIDTH 1000 0
DWIDTH 34 0
BBX 34 40 0 -8
BITMAP
1ffc1fc000
1ffc1fc000
1ffc1fc000
1ffc1fc000
fc1ffc0000
fc1ffc0000
fc1ffc0000
fc1ffc0000
0000000000
0000000000
0000000000
0000000000
fdffffc000
fdffffc000
fdffffc000
fdffffc000
ffc001fc00
ffc001fc00
ffc001fc00
ffc001fc00
fc0001fc00
fc0001fc00
fc0001fc00
fc0001fc00
fc0001fc00
fc0001fc00
fc0001fc00
fc0001fc00
fc0001fc00
fc0001fc00
fc0001fc00
fc0001fc00
0000000000
0000000000
0000000000
0000000000
0000000000
0000000000
0000000000
0000000000
ENDCHAR
STARTCHAR U+00F0
ENCODING 240
SWIDTH 1000 0
DWIDTH 34 0
BBX 34 40 0 -8
BITMAP
001fc1fc00
001fc1fc00
001fc1fc00
001fc1fc00
0001ffc000
0001ffc000
0001ffc000
0001ffc000
001fc1fc00
001fc1fc00
001fc1fc00
001fc1fc00
1ffffdfc00
1ffffdfc00
1ffffdfc00
1ffffdfc00
fc001ffc00
fc001ffc00
fc001ffc00
fc001ffc00
fc0001fc00
fc0001fc00
fc0001fc00
fc0001fc00
fc001fc000
fc001fc000
fc001fc000
fc001fc000
1ffffc0000
1ffffc0000
1ffffc0000
1ffffc0000
0000000000
0000000000
0000000000
0000000000
0000000000
0000000000
0000000000
0000000000
ENDCHAR
STARTCHAR U+00EF
ENCODING 239
SWIDTH 1000 0
DWIDTH 34 0
BBX 34 40 0 -8
BITMAP
0000000000
0000000000
0000000000
0000000000
1fc01fc000
1fc01fc000
1fc01fc000
1fc01fc000
0000000000
0000000000
0000000000
0000000000
01ffc00000
01ffc00000
01ffc00000
01ffc00000
001fc00000
001fc00000
001fc00000
001fc00000
001fc00000
001fc00000
001fc00000
001fc00000
001fc00000
001fc00000
001fc00000
001fc00000
1fffffc000
1fffffc000
1fffffc000
1fffffc000
0000000000
0000000000
0000000000
0000000000
0000000000
0000000000
0000000000
0000000000
ENDCHAR
STARTCHAR U+00EE
ENCODING 238
SWIDTH 1000 0
DWIDTH 34 0
BBX 34 40 0 -8
BITMAP
01fffc0000
01fffc0000
01fffc0000
01fffc0000
1fc01fc000
1fc01fc000
1fc01fc000
1fc01fc000
0000000000
0000000000
0000000000
0000000000
01ffc00000
01ffc00000
01ffc00000
01ffc00000
001fc00000
001fc00000
001fc00000
001fc00000
001fc00000
001fc00000
001fc00000
001fc00000
001fc00000
001fc00000
001fc00000
001fc00000
1fffffc000
1fffffc000
1fffffc000
1fffffc000
0000000000
0000000000
0000000000
0000000000
0000000000
0000000000
0000000000
0000000000
ENDCHAR
STARTCHAR U+00ED
ENCODING 237
SWIDTH 1000 0
DWIDTH 34 0
BBX 34 40 0 -8
BITMAP
0000000000
0000000000
0000000000
0000000000
001ffc0000
001ffc0000
001ffc0000
001ffc0000
1ffc000000
1ffc000000
1ffc000000
1ffc000000
01ffc00000
01ffc00000
01ffc00000
01ffc00000
001fc00000
001fc00000
001fc00000
001fc00000
001fc00000
001fc00000
001fc00000
001fc00000
001fc00000
001fc00000
001fc00000
001fc00000
1fffffc000
1fffffc000
1fffffc000
1fffffc000
0000000000
0000000000
0000000000
0000000000
0000000000
0000000000
0000000000
0000000000
ENDCHAR
STARTCHAR U+00EC
ENCODING 236
SWIDTH 1000 0
DWIDTH 34 0
BBX 34 40 0 -8
BITMAP
0000000000
0000000000
0000000000
0000000000
1ffc000000
1ffc000000
1ffc000000
1ffc000000
001ffc0000
001ffc0000
001ffc0000
001ffc0000
01ffc00000
01ffc00000
01ffc00000
01ffc00000
001fc00000
001fc00000
001fc00000
001fc00000
001fc00000
001fc00000
001fc00000
001fc00000
001fc00000
001fc00000
001fc00000
001fc00000
1fffffc000
1fffffc000
1fffffc000
1fffffc000
0000000000
0000000000
0000000000
0000000000
0000000000
0000000000
0000000000
0000000000
ENDCHAR
STARTCHAR U+00EB
ENCODING 235
SWIDTH 1000 0
DWIDTH 34 0
BBX 34 40 0 -8
BITMAP
0000000000
0000000000
0000000000
0000000000
1fc01fc000
1fc01fc000
1fc01fc000
1fc01fc000
0000000000
0000000000
0000000000
0000000000
1fffffc000
1fffffc000
1fffffc000
1fffffc000
fc0001fc00
fc0001fc00
fc0001fc00
fc0001fc00
fffffffc00
fffffffc00
fffffffc00
fffffffc00
fc00000000
fc00000000
fc00000000
fc00000000
1fffffc000
1fffffc000
1fffffc000
1fffffc000
0000000000
0000000000
0000000000
0000000000
0000000000
0000000000
0000000000
0000000000
ENDCHAR
STARTCHAR U+00EA
ENCODING 234
SWIDTH 1000 0
DWIDTH 34 0
BBX 34 40 0 -8
BITMAP
01fffc0000
01fffc0000
01fffc0000
01fffc0000
1fc01fc000
1fc01fc000
1fc01fc000
1fc01fc000
0000000000
0000000000
0000000000
0000000000
1fffffc000
1fffffc000
1fffffc000
1fffffc000
fc0001fc00
fc0001fc00
fc0001fc00
fc0001fc00
fffffffc00
fffffffc00
fffffffc00
fffffffc00
fc00000000
fc00000000
fc00000000
fc00000000
1fffffc000
1fffffc000
1fffffc000
1fffffc000
0000000000
0000000000
0000000000
0000000000
0000000000
0000000000
0000000000
0000000000
ENDCHAR
STARTCHAR U+00E9
ENCODING 233
SWIDTH 1000 0
DWIDTH 34 0
BBX 34 40 0 -8
BITMAP
0000000000
0000000000
0000000000
0000000000
001ffc0000
001ffc0000
001ffc0000
001ffc0000
1ffc000000
1ffc000000
1ffc000000
1ffc000000
1fffffc000
1fffffc000
1fffffc000
1fffffc000
fc0001fc00
fc0001fc00
fc0001fc00
fc0001fc00
fffffffc00
fffffffc00
fffffffc00
fffffffc00
fc00000000
fc00000000
fc00000000
fc00000000
1fffffc000
1fffffc000
1fffffc000
1fffffc000
0000000000
0000000000
0000000000
0000000000
0000000000
0000000000
0000000000
0000000000
ENDCHAR
STARTCHAR U+00E8
ENCODING 232
SWIDTH 1000 0
DWIDTH 34 0
BBX 34 40 0 -8
BITMAP
0000000000
0000000000
0000000000
0000000000
01ffc00000
01ffc00000
01ffc00000
01ffc00000
0001ffc000
0001ffc000
0001ffc000
0001ffc000
1fffffc000
1fffffc000
1fffffc000
1fffffc000
fc0001fc00
fc0001fc00
fc0001fc00
fc0001fc00
fffffffc00
fffffffc00
fffffffc00
fffffffc00
fc00000000
fc00000000
fc00000000
fc00000000
1fffffc000
1fffffc000
1fffffc000
1fffffc000
0000000000
0000000000
0000000000
0000000000
0000000000
0000000000
0000000000
0000000000
ENDCHAR
STARTCHAR U+00E7
ENCODING 231
SWIDTH 1000 0
DWIDTH 34 0
BBX 34 40 0 -8
BITMAP
0000000000
0000000000
0000000000
0000000000
0000000000
0000000000
0000000000
0000000000
0000000000
0000000000
0000000000
0000000000
1fffffc000
1fffffc000
1fffffc000
1fffffc000
fc0001fc00
fc0001fc00
fc0001fc00
fc0001fc00
fc00000000
fc00000000
fc00000000
fc00000000
fc0001fc00
fc0001fc00
fc0001fc00
fc0001fc00
1fffffc000
1fffffc000
1fffffc000
1fffffc000
0001fc0000
0001fc0000
0001fc0000
0001fc0000
01fffc0000
01fffc0000
01fffc0000
01fffc0000
ENDCHAR
STARTCHAR U+00E6
ENCODING 230
SWIDTH 1000 0
DWIDTH 34 0
BBX 34 40 0 -8
BITMAP
0000000000
0000000000
0000000000
0000000000
0000000000
0000000000
0000000000
0000000000
0000000000
0000000000
0000000000
0000000000
1ffdffc000
1ffdffc000
1ffdffc000
1ffdffc000
001fc1fc00
001fc1fc00
001fc1fc00
001fc1fc00
1ffffffc00
1ffffffc00
1ffffffc00
1ffffffc00
fc1fc00000
fc1fc00000
fc1fc00000
fc1fc00000
1ffffffc00
1ffffffc00
1ffffffc00
1ffffffc00
0000000000
0000000000
0000000000
0000000000
0000000000
0000000000
0000000000
0000000000
ENDCHAR
STARTCHAR U+00E5
ENCODING 229
SWIDTH 1000 0
DWIDTH 34 0
BBX 34 40 0 -8
BITMAP
01fffc0000
01fffc0000
01fffc0000
01fffc0000
1fc01fc000
1fc01fc000
1fc01fc000
1fc01fc000
01fffc0000
01fffc0000
01fffc0000
01fffc0000
1fffffc000
1fffffc000
1fffffc000
1fffffc000
000001fc00
000001fc00
000001fc00
000001fc00
1ffffffc00
1ffffffc00
1ffffffc00
1ffffffc00
fc001ffc00
fc001ffc00
fc001ffc00
fc001ffc00
1ffffdfc00
1ffffdfc00
1ffffdfc00
1ffffdfc00
0000000000
0000000000
0000000000
0000000000
0000000000
0000000000
0000000000
0000000000
ENDCHAR
STARTCHAR U+00E4
ENCODING 228
SWIDTH 1000 0
DWIDTH 34 0
BBX 34 40 0 -8
BITMAP
0000000000
0000000000
0000000000
0000000000
1fc01fc000
1fc01fc000
1fc01fc000
1fc01fc000
0000000000
0000000000
0000000000
0000000000
1fffffc000
1fffffc000
1fffffc000
1fffffc000
000001fc00
000001fc00
000001fc00
000001fc00
1ffffffc00
1ffffffc00
1ffffffc00
1ffffffc00
fc001ffc00
fc001ffc00
fc001ffc00
fc001ffc00
1ffffdfc00
1ffffdfc00
1ffffdfc00
1ffffdfc00
0000000000
0000000000
0000000000
0000000000
0000000000
0000000000
0000000000
0000000000
ENDCHAR
STARTCHAR U+00E3
ENCODING 227
SWIDTH 1000 0
DWIDTH 34 0
BBX 34 40 0 -8
BITMAP
01ffc1fc00
01ffc1fc00
01ffc1fc00
01ffc1fc00
1fc1ffc000
1fc1ffc000
1fc1ffc000
1fc1ffc000
0000000000
0000000000
0000000000
0000000000
1fffffc000
1fffffc000
1fffffc000
1fffffc000
000001fc00
000001fc00
000001fc00
000001fc00
1ffffffc00
1ffffffc00
1ffffffc00
1ffffffc00
fc001ffc00
fc001ffc00
fc001ffc00
fc001ffc00
1ffffdfc00
1ffffdfc00
1ffffdfc00
1ffffdfc00
0000000000
0000000000
0000000000
0000000000
0000000000
0000000000
0000000000
0000000000
ENDCHAR
STARTCHAR U+00E2
ENCODING 226
SWIDTH 1000 0
DWIDTH 34 0
BBX 34 40 0 -8
BITMAP
01fffc0000
01fffc0000
01fffc0000
01fffc0000
1fc01fc000
1fc01fc000
1fc01fc000
1fc01fc000
0000000000
0000000000
0000000000
0000000000
1fffffc000
1fffffc000
1fffffc000
1fffffc000
000001fc00
000001fc00
000001fc00
000001fc00
1ffffffc00
1ffffffc00
1ffffffc00
1ffffffc00
fc001ffc00
fc001ffc00
fc001ffc00
fc001ffc00
1ffffdfc00
1ffffdfc00
1ffffdfc00
1ffffdfc00
0000000000
0000000000
0000000000
0000000000
0000000000
0000000000
0000000000
0000000000
ENDCHAR
STARTCHAR U+00E1
ENCODING 225
SWIDTH 1000 0
DWIDTH 34 0
BBX 34 40 0 -8
BITMAP
0000000000
0000000000
0000000000
0000000000
001ffc0000
001ffc0000
001ffc0000
001ffc0000
1ffc000000
1ffc000000
1ffc000000
1ffc000000
1fffffc000
1fffffc000
1fffffc000
1fffffc000
000001fc00
000001fc00
000001fc00
000001fc00
1ffffffc00
1ffffffc00
1ffffffc00
1ffffffc00
fc001ffc00
fc001ffc00
fc001ffc00
fc001ffc00
1ffffdfc00
1ffffdfc00
1ffffdfc00
1ffffdfc00
0000000000
0000000000
0000000000
0000000000
0000000000
0000000000
0000000000
0000000000
ENDCHAR
STARTCHAR U+00E0
ENCODING 224
SWIDTH 1000 0
DWIDTH 34 0
BBX 34 40 0 -8
BITMAP
0000000000
0000000000
0000000000
0000000000
01ffc00000
01ffc00000
01ffc00000
01ffc00000
0001ffc000
0001ffc000
0001ffc000
0001ffc000
1fffffc000
1fffffc000
1fffffc000
1fffffc000
000001fc00
000001fc00
000001fc00
000001fc00
1ffffffc00
1ffffffc00
1ffffffc00
1ffffffc00
fc001ffc00
fc001ffc00
fc001ffc00
fc001ffc00
1ffffdfc00
1ffffdfc00
1ffffdfc00
1ffffdfc00
0000000000
0000000000
0000000000
0000000000
0000000000
0000000000
0000000000
0000000000
ENDCHAR
STARTCHAR U+00DF
ENCODING 223
SWIDTH 1000 0
DWIDTH 34 0
BBX 34 40 0 -8
BITMAP
0000000000
0000000000
0000000000
0000000000
01fffc0000
01fffc0000
01fffc0000
01fffc0000
1fc01fc000
1fc01fc000
1fc01fc000
1fc01fc000
fc001fc000
fc001fc000
fc001fc000
fc001fc000
fdfffc0000
fdfffc0000
fdfffc0000
fdfffc0000
fc001fc000
fc001fc000
fc001fc000
fc001fc000
fdfc01fc00
fdfc01fc00
fdfc01fc00
fdfc01fc00
fc1fffc000
fc1fffc000
fc1fffc000
fc1fffc000
fc00000000
fc00000000
fc00000000
fc00000000
0000000000
0000000000
0000000000
0000000000
ENDCHAR
STARTCHAR U+00DE
ENCODING 222
SWIDTH 1000 0
DWIDTH 34 0
BBX 34 40 0 -8
BITMAP
0000000000
0000000000
0000000000
0000000000
ffc0000000
ffc0000000
ffc0000000
ffc0000000
1fffffc000
1fffffc000
1fffffc000
1fffffc000
1fc001fc00
1fc001fc00
1fc001fc00
1fc001fc00
1fc001fc00
1fc001fc00
1fc001fc00
1fc001fc00
1fc001fc00
1fc001fc00
1fc001fc00
1fc001fc00
1fffffc000
1fffffc000
1fffffc000
1fffffc000
ffc0000000
ffc0000000
ffc0000000
ffc0000000
0000000000
0000000000
0000000000
0000000000
0000000000
0000000000
0000000000
0000000000
ENDCHAR
STARTCHAR U+0178
ENCODING 376
SWIDTH 1000 0
DWIDTH 34 0
BBX 34 40 0 -8
BITMAP
1fc01fc000
1fc01fc000
1fc01fc000
1fc01fc000
0000000000
0000000000
0000000000
0000000000
fc0001fc00
fc0001fc00
fc0001fc00
fc0001fc00
1fc01fc000
1fc01fc000
1fc01fc000
1fc01fc000
01fdfc0000
01fdfc0000
01fdfc0000
01fdfc0000
001fc00000
001fc00000
001fc00000
001fc00000
001fc00000
001fc00000
001fc00000
001fc00000
001fc00000
001fc00000
001fc00000
001fc00000
0000000000
0000000000
0000000000
0000000000
0000000000
0000000000
0000000000
0000000000
ENDCHAR
STARTCHAR U+00DC
ENCODING 220
SWIDTH 1000 0
DWIDTH 34 0
BBX 34 40 0 -8
BITMAP
1fc01fc000
1fc01fc000
1fc01fc000
1fc01fc000
0000000000
0000000000
0000000000
0000000000
fc0001fc00
fc0001fc00
fc0001fc00
fc0001fc00
fc0001fc00
fc0001fc00
fc0001fc00
fc0001fc00
fc0001fc00
fc0001fc00
fc0001fc00
fc0001fc00
fc0001fc00
fc0001fc00
fc0001fc00
fc0001fc00
fc0001fc00
fc0001fc00
fc0001fc00
fc0001fc00
1fffffc000
1fffffc000
1fffffc000
1fffffc000
0000000000
0000000000
0000000000
0000000000
0000000000
0000000000
0000000000
0000000000
ENDCHAR
STARTCHAR U+00DB
ENCODING 219
SWIDTH 1000 0
DWIDTH 34 0
BBX 34 40 0 -8
BITMAP
001fc00000
001fc00000
001fc00000
001fc00000
01fdfc0000
01fdfc0000
01fdfc0000
01fdfc0000
fc0001fc00
fc0001fc00
fc0001fc00
fc0001fc00
fc0001fc00
fc0001fc00
fc0001fc00
fc0001fc00
fc0001fc00
fc0001fc00
fc0001fc00
fc0001fc00
fc0001fc00
fc0001fc00
fc0001fc00
fc0001fc00
fc0001fc00
fc0001fc00
fc0001fc00
fc0001fc00
1fffffc000
1fffffc000
1fffffc000
1fffffc000
0000000000
0000000000
0000000000
0000000000
0000000000
0000000000
0000000000
0000000000
ENDCHAR
STARTCHAR U+00DA
ENCODING 218
SWIDTH 1000 0
DWIDTH 34 0
BBX 34 40 0 -8
BITMAP
0001ffc000
0001ffc000
0001ffc000
0001ffc000
01ffc00000
01ffc00000
01ffc00000
01ffc00000
fc0001fc00
fc0001fc00
fc0001fc00
fc0001fc00
fc0001fc00
fc0001fc00
fc0001fc00
fc0001fc00
fc0001fc00
fc0001fc00
fc0001fc00
fc0001fc00
fc0001fc00
fc0001fc00
fc0001fc00
fc0001fc00
fc0001fc00
fc0001fc00
fc0001fc00
fc0001fc00
1fffffc000
1fffffc000
1fffffc000
1fffffc000
0000000000
0000000000
0000000000
0000000000
0000000000
0000000000
0000000000
0000000000
ENDCHAR
STARTCHAR U+00D9
ENCODING 217
SWIDTH 1000 0
DWIDTH 34 0
BBX 34 40 0 -8
BITMAP
1ffc000000
1ffc000000
1ffc000000
1ffc000000
001ffc0000
001ffc0000
001ffc0000
001ffc0000
fc0001fc00
fc0001fc00
fc0001fc00
fc0001fc00
fc0001fc00
fc0001fc00
fc0001fc00
fc0001fc00
fc0001fc00
fc0001fc00
fc0001fc00
fc0001fc00
fc0001fc00
fc0001fc00
fc0001fc00
fc0001fc00
fc0001fc00
fc0001fc00
fc0001fc00
fc0001fc00
1fffffc000
1fffffc000
1fffffc000
1fffffc000
0000000000
0000000000
0000000000
0000000000
0000000000
0000000000
0000000000
0000000000
ENDCHAR
STARTCHAR U+00D8
ENCODING 216
SWIDTH 1000 0
DWIDTH 34 0
BBX 34 40 0 -8
BITMAP
000001fc00
000001fc00
000001fc00
000001fc00
1fffffc000
1fffffc000
1fffffc000
1fffffc000
fc001ffc00
fc001ffc00
fc001ffc00
fc001ffc00
fc01fdfc00
fc01fdfc00
fc01fdfc00
fc01fdfc00
fc1fc1fc00
fc1fc1fc00
fc1fc1fc00
fc1fc1fc00
fdfc01fc00
fdfc01fc00
fdfc01fc00
fdfc01fc00
ffc001fc00
ffc001fc00
ffc001fc00
ffc001fc00
1fffffc000
1fffffc000
1fffffc000
1fffffc000
fc00000000
fc00000000
fc00000000
fc00000000
0000000000
0000000000
0000000000
0000000000
ENDCHAR
STARTCHAR U+0152
ENCODING 338
SWIDTH 1000 0
DWIDTH 34 0
BBX 34 40 0 -8
BITMAP
0000000000
0000000000
0000000000
0000000000
1ffdfffc00
1ffdfffc00
1ffdfffc00
1ffdfffc00
fc1fc00000
fc1fc00000
fc1fc00000
fc1fc00000
fc1fc00000
fc1fc00000
fc1fc00000
fc1fc00000
fc1fffc000
fc1fffc000
fc1fffc000
fc1fffc000
fc1fc00000
fc1fc00000
fc1fc00000
fc1fc00000
fc1fc00000
fc1fc00000
fc1fc00000
fc1fc00000
1ffdfffc00
1ffdfffc00
1ffdfffc00
1ffdfffc00
0000000000
0000000000
0000000000
0000000000
0000000000
0000000000
0000000000
0000000000
ENDCHAR
STARTCHAR U+00D6
ENCODING 214
SWIDTH 1000 0
DWIDTH 34 0
BBX 34 40 0 -8
BITMAP
1fc01fc000
1fc01fc000
1fc01fc000
1fc01fc000
0000000000
0000000000
0000000000
0000000000
1fffffc000
1fffffc000
1fffffc000
1fffffc000
fc0001fc00
fc0001fc00
fc0001fc00
fc0001fc00
fc0001fc00
fc0001fc00
fc0001fc00
fc0001fc00
fc0001fc00
fc0001fc00
fc0001fc00
fc0001fc00
fc0001fc00
fc0001fc00
fc0001fc00
fc0001fc00
1fffffc000
1fffffc000
1fffffc000
1fffffc000
0000000000
0000000000
0000000000
0000000000
0000000000
0000000000
0000000000
0000000000
ENDCHAR
STARTCHAR U+00D5
ENCODING 213
SWIDTH 1000 0
DWIDTH 34 0
BBX 34 40 0 -8
BITMAP
1ffc1fc000
1ffc1fc000
1ffc1fc000
1ffc1fc000
fc1ffc0000
fc1ffc0000
fc1ffc0000
fc1ffc0000
1fffffc000
1fffffc000
1fffffc000
1fffffc000
fc0001fc00
fc0001fc00
fc0001fc00
fc0001fc00
fc0001fc00
fc0001fc00
fc0001fc00
fc0001fc00
fc0001fc00
fc0001fc00
fc0001fc00
fc0001fc00
fc0001fc00
fc0001fc00
fc0001fc00
fc0001fc00
1fffffc000
1fffffc000
1fffffc000
1fffffc000
0000000000
0000000000
0000000000
0000000000
0000000000
0000000000
0000000000
0000000000
ENDCHAR
STARTCHAR U+00D4
ENCODING 212
SWIDTH 1000 0
DWIDTH 34 0
BBX 34 40 0 -8
BITMAP
01fffc0000
01fffc0000
01fffc0000
01fffc0000
1fc01fc000
1fc01fc000
1fc01fc000
1fc01fc000
1fffffc000
1fffffc000
1fffffc000
1fffffc000
fc0001fc00
fc0001fc00
fc0001fc00
fc0001fc00
fc0001fc00
fc0001fc00
fc0001fc00
fc0001fc00
fc0001fc00
fc0001fc00
fc0001fc00
fc0001fc00
fc0001fc00
fc0001fc00
fc0001fc00
fc0001fc00
1fffffc000
1fffffc000
1fffffc000
1fffffc000
0000000000
0000000000
0000000000
0000000000
0000000000
0000000000
0000000000
0000000000
ENDCHAR
STARTCHAR U+00D3
ENCODING 211
SWIDTH 1000 0
DWIDTH 34 0
BBX 34 40 0 -8
BITMAP
001ffc0000
001ffc0000
001ffc0000
001ffc0000
1ffc000000
1ffc000000
1ffc000000
1ffc000000
1fffffc000
1fffffc000
1fffffc000
1fffffc000
fc0001fc00
fc0001fc00
fc0001fc00
fc0001fc00
fc0001fc00
fc0001fc00
fc0001fc00
fc0001fc00
fc0001fc00
fc0001fc00
fc0001fc00
fc0001fc00
fc0001fc00
fc0001fc00
fc0001fc00
fc0001fc00
1fffffc000
1fffffc000
1fffffc000
1fffffc000
0000000000
0000000000
0000000000
0000000000
0000000000
0000000000
0000000000
0000000000
ENDCHAR
STARTCHAR U+00D2
ENCODING 210
SWIDTH 1000 0
DWIDTH 34 0
BBX 34 40 0 -8
BITMAP
01ffc00000
01ffc00000
01ffc00000
01ffc00000
0001ffc000
0001ffc000
0001ffc000
0001ffc000
1fffffc000
1fffffc000
1fffffc000
1fffffc000
fc0001fc00
fc0001fc00
fc0001fc00
fc0001fc00
fc0001fc00
fc0001fc00
fc0001fc00
fc0001fc00
fc0001fc00
fc0001fc00
fc0001fc00
fc0001fc00
fc0001fc00
fc0001fc00
fc0001fc00
fc0001fc00
1fffffc000
1fffffc000
1fffffc000
1fffffc000
0000000000
0000000000
0000000000
0000000000
0000000000
0000000000
0000000000
0000000000
ENDCHAR
STARTCHAR U+00D1
ENCODING 209
SWIDTH 1000 0
DWIDTH 34 0
BBX 34 40 0 -8
BITMAP
01ffc1fc00
01ffc1fc00
01ffc1fc00
01ffc1fc00
1fc1ffc000
1fc1ffc000
1fc1ffc000
1fc1ffc000
ffc001fc00
ffc001fc00
ffc001fc00
ffc001fc00
fdfc01fc00
fdfc01fc00
fdfc01fc00
fdfc01fc00
fc1fc1fc00
fc1fc1fc00
fc1fc1fc00
fc1fc1fc00
fc01fdfc00
fc01fdfc00
fc01fdfc00
fc01fdfc00
fc001ffc00
fc001ffc00
fc001ffc00
fc001ffc00
fc0001fc00
fc0001fc00
fc0001fc00
fc0001fc00
0000000000
0000000000
0000000000
0000000000
0000000000
0000000000
0000000000
0000000000
ENDCHAR
STARTCHAR U+00D0
ENCODING 208
SWIDTH 1000 0
DWIDTH 34 0
BBX 34 40 0 -8
BITMAP
0000000000
0000000000
0000000000
0000000000
fffffc0000
fffffc0000
fffffc0000
fffffc0000
1fc01fc000
1fc01fc000
1fc01fc000
1fc01fc000
1fc001fc00
1fc001fc00
1fc001fc00
1fc001fc00
ffffc1fc00
ffffc1fc00
ffffc1fc00
ffffc1fc00
1fc001fc00
1fc001fc00
1fc001fc00
1fc001fc00
1fc01fc000
1fc01fc000
1fc01fc000
1fc01fc000
fffffc0000
fffffc0000
fffffc0000
fffffc0000
0000000000
0000000000
0000000000
0000000000
0000000000
0000000000
0000000000
0000000000
ENDCHAR
STARTCHAR U+00CF
ENCODING 207
SWIDTH 1000 0
DWIDTH 34 0
BBX 34 40 0 -8
BITMAP
1fc01fc000
1fc01fc000
1fc01fc000
1fc01fc000
0000000000
0000000000
0000000000
0000000000
1fffffc000
1fffffc000
1fffffc000
1fffffc000
001fc00000
001fc00000
001fc00000
001fc00000
001fc00000
001fc00000
001fc00000
001fc00000
001fc00000
001fc00000
001fc00000
001fc00000
001fc00000
001fc00000
001fc00000
001fc00000
1fffffc000
1fffffc000
1fffffc000
1fffffc000
0000000000
0000000000
0000000000
0000000000
0000000000
0000000000
0000000000
0000000000
ENDCHAR
STARTCHAR U+00CE
ENCODING 206
SWIDTH 1000 0
DWIDTH 34 0
BBX 34 40 0 -8
BITMAP
01fffc0000
01fffc0000
01fffc0000
01fffc0000
1fc01fc000
1fc01fc000
1fc01fc000
1fc01fc000
1fffffc000
1fffffc000
1fffffc000
1fffffc000
001fc00000
001fc00000
001fc00000
001fc00000
001fc00000
001fc00000
001fc00000
001fc00000
001fc00000
001fc00000
001fc00000
001fc00000
001fc00000
001fc00000
001fc00000
001fc00000
1fffffc000
1fffffc000
1fffffc000
1fffffc000
0000000000
0000000000
0000000000
0000000000
0000000000
0000000000
0000000000
0000000000
ENDCHAR
STARTCHAR U+00CD
ENCODING 205
SWIDTH 1000 0
DWIDTH 34 0
BBX 34 40 0 -8
BITMAP
001ffc0000
001ffc0000
001ffc0000
001ffc0000
1ffc000000
1ffc000000
1ffc000000
1ffc000000
1fffffc000
1fffffc000
1fffffc000
1fffffc000
001fc00000
001fc00000
001fc00000
001fc00000
001fc00000
001fc00000
001fc00000
001fc00000
001fc00000
001fc00000
001fc00000
001fc00000
001fc00000
001fc00000
001fc00000
001fc00000
1fffffc000
1fffffc000
1fffffc000
1fffffc000
0000000000
0000000000
0000000000
0000000000
0000000000
0000000000
0000000000
0000000000
ENDCHAR
STARTCHAR U+00CC
ENCODING 204
SWIDTH 1000 0
DWIDTH 34 0
BBX 34 40 0 -8
BITMAP
01ffc00000
01ffc00000
01ffc00000
01ffc00000
0001ffc000
0001ffc000
0001ffc000
0001ffc000
1fffffc000
1fffffc000
1fffffc000
1fffffc000
001fc00000
001fc00000
001fc00000
001fc00000
001fc00000
001fc00000
001fc00000
001fc00000
001fc00000
001fc00000
001fc00000
001fc00000
001fc00000
001fc00000
001fc00000
001fc00000
1fffffc000
1fffffc000
1fffffc000
1fffffc000
0000000000
0000000000
0000000000
0000000000
0000000000
0000000000
0000000000
0000000000
ENDCHAR
STARTCHAR U+00CB
ENCODING 203
SWIDTH 1000 0
DWIDTH 34 0
BBX 34 40 0 -8
BITMAP
1fc01fc000
1fc01fc000
1fc01fc000
1fc01fc000
0000000000
0000000000
0000000000
0000000000
fffffffc00
fffffffc00
fffffffc00
fffffffc00
fc00000000
fc00000000
fc00000000
fc00000000
fffffc0000
fffffc0000
fffffc0000
fffffc0000
fc00000000
fc00000000
fc00000000
fc00000000
fc00000000
fc00000000
fc00000000
fc00000000
fffffffc00
fffffffc00
fffffffc00
fffffffc00
0000000000
0000000000
0000000000
0000000000
0000000000
0000000000
0000000000
0000000000
ENDCHAR
STARTCHAR U+00CA
ENCODING 202
SWIDTH 1000 0
DWIDTH 34 0
BBX 34 40 0 -8
BITMAP
01fffc0000
01fffc0000
01fffc0000
01fffc0000
1fc01fc000
1fc01fc000
1fc01fc000
1fc01fc000
fffffffc00
fffffffc00
fffffffc00
fffffffc00
fc00000000
fc00000000
fc00000000
fc00000000
ffffc00000
ffffc00000
ffffc00000
ffffc00000
fc00000000
fc00000000
fc00000000
fc00000000
fc00000000
fc00000000
fc00000000
fc00000000
fffffffc00
fffffffc00
fffffffc00
fffffffc00
0000000000
0000000000
0000000000
0000000000
0000000000
0000000000
0000000000
0000000000
ENDCHAR
STARTCHAR U+00C9
ENCODING 201
SWIDTH 1000 0
DWIDTH 34 0
BBX 34 40 0 -8
BITMAP
0001ffc000
0001ffc000
0001ffc000
0001ffc000
01ffc00000
01ffc00000
01ffc00000
01ffc00000
fffffffc00
fffffffc00
fffffffc00
fffffffc00
fc00000000
fc00000000
fc00000000
fc00000000
fffffc0000
fffffc0000
fffffc0000
fffffc0000
fc00000000
fc00000000
fc00000000
fc00000000
fc00000000
fc00000000
fc00000000
fc00000000
fffffffc00
fffffffc00
fffffffc00
fffffffc00
0000000000
0000000000
0000000000
0000000000
0000000000
0000000000
0000000000
0000000000
ENDCHAR
STARTCHAR U+00C8
ENCODING 200
SWIDTH 1000 0
DWIDTH 34 0
BBX 34 40 0 -8
BITMAP
1ffc000000
1ffc000000
1ffc000000
1ffc000000
001ffc0000
001ffc0000
001ffc0000
001ffc0000
fffffffc00
fffffffc00
fffffffc00
fffffffc00
fc00000000
fc00000000
fc00000000
fc00000000
fffffc0000
fffffc0000
fffffc0000
fffffc0000
fc00000000
fc00000000
fc00000000
fc00000000
fc00000000
fc00000000
fc00000000
fc00000000
fffffffc00
fffffffc00
fffffffc00
fffffffc00
0000000000
0000000000
0000000000
0000000000
0000000000
0000000000
0000000000
0000000000
ENDCHAR
STARTCHAR U+00C7
ENCODING 199
SWIDTH 1000 0
DWIDTH 34 0
BBX 34 40 0 -8
BITMAP
0000000000
0000000000
0000000000
0000000000
01ffffc000
01ffffc000
01ffffc000
01ffffc000
1fc001fc00
1fc001fc00
1fc001fc00
1fc001fc00
fc00000000
fc00000000
fc00000000
fc00000000
fc00000000
fc00000000
fc00000000
fc00000000
fc00000000
fc00000000
fc00000000
fc00000000
1fc001fc00
1fc001fc00
1fc001fc00
1fc001fc00
01ffffc000
01ffffc000
01ffffc000
01ffffc000
0001fc0000
0001fc0000
0001fc0000
0001fc0000
01fffc0000
01fffc0000
01fffc0000
01fffc0000
ENDCHAR
STARTCHAR U+00C6
ENCODING 198
SWIDTH 1000 0
DWIDTH 34 0
BBX 34 40 0 -8
BITMAP
0000000000
0000000000
0000000000
0000000000
01fffffc00
01fffffc00
01fffffc00
01fffffc00
1fdfc00000
1fdfc00000
1fdfc00000
1fdfc00000
fc1fc00000
fc1fc00000
fc1fc00000
fc1fc00000
fc1fffc000
fc1fffc000
fc1fffc000
fc1fffc000
ffffc00000
ffffc00000
ffffc00000
ffffc00000
fc1fc00000
fc1fc00000
fc1fc00000
fc1fc00000
fc1ffffc00
fc1ffffc00
fc1ffffc00
fc1ffffc00
0000000000
0000000000
0000000000
0000000000
0000000000
0000000000
0000000000
0000000000
ENDCHAR
STARTCHAR U+00C5
ENCODING 197
SWIDTH 1000 0
DWIDTH 34 0
BBX 34 40 0 -8
BITMAP
01fffc0000
01fffc0000
01fffc0000
01fffc0000
1fc01fc000
1fc01fc000
1fc01fc000
1fc01fc000
01fffc0000
01fffc0000
01fffc0000
01fffc0000
01fffc0000
01fffc0000
01fffc0000
01fffc0000
1fc01fc000
1fc01fc000
1fc01fc000
1fc01fc000
fffffffc00
fffffffc00
fffffffc00
fffffffc00
fc0001fc00
fc0001fc00
fc0001fc00
fc0001fc00
fc0001fc00
fc0001fc00
fc0001fc00
fc0001fc00
0000000000
0000000000
0000000000
0000000000
0000000000
0000000000
0000000000
0000000000
ENDCHAR
STARTCHAR U+00C4
ENCODING 196
SWIDTH 1000 0
DWIDTH 34 0
BBX 34 40 0 -8
BITMAP
1fc01fc000
1fc01fc000
1fc01fc000
1fc01fc000
0000000000
0000000000
0000000000
0000000000
001fc00000
001fc00000
001fc00000
001fc00000
01fdfc0000
01fdfc0000
01fdfc0000
01fdfc0000
1fc01fc000
1fc01fc000
1fc01fc000
1fc01fc000
fffffffc00
fffffffc00
fffffffc00
fffffffc00
fc0001fc00
fc0001fc00
fc0001fc00
fc0001fc00
fc0001fc00
fc0001fc00
fc0001fc00
fc0001fc00
0000000000
0000000000
0000000000
0000000000
0000000000
0000000000
0000000000
0000000000
ENDCHAR
STARTCHAR U+00C3
ENCODING 195
SWIDTH 1000 0
DWIDTH 34 0
BBX 34 40 0 -8
BITMAP
01ffc1fc00
01ffc1fc00
01ffc1fc00
01ffc1fc00
1fc1ffc000
1fc1ffc000
1fc1ffc000
1fc1ffc000
001fc00000
001fc00000
001fc00000
001fc00000
01fdfc0000
01fdfc0000
01fdfc0000
01fdfc0000
1fc01fc000
1fc01fc000
1fc01fc000
1fc01fc000
fffffffc00
fffffffc00
fffffffc00
fffffffc00
fc0001fc00
fc0001fc00
fc0001fc00
fc0001fc00
fc0001fc00
fc0001fc00
fc0001fc00
fc0001fc00
0000000000
0000000000
0000000000
0000000000
0000000000
0000000000
0000000000
0000000000
ENDCHAR
STARTCHAR U+00C2
ENCODING 194
SWIDTH 1000 0
DWIDTH 34 0
BBX 34 40 0 -8
BITMAP
01fffc0000
01fffc0000
01fffc0000
01fffc0000
1fc01fc000
1fc01fc000
1fc01fc000
1fc01fc000
001fc00000
001fc00000
001fc00000
001fc00000
01fdfc0000
01fdfc0000
01fdfc0000
01fdfc0000
1fc01fc000
1fc01fc000
1fc01fc000
1fc01fc000
fffffffc00
fffffffc00
fffffffc00
fffffffc00
fc0001fc00
fc0001fc00
fc0001fc00
fc0001fc00
fc0001fc00
fc0001fc00
fc0001fc00
fc0001fc00
0000000000
0000000000
0000000000
0000000000
0000000000
0000000000
0000000000
0000000000
ENDCHAR
STARTCHAR U+00C1
ENCODING 193
SWIDTH 1000 0
DWIDTH 34 0
BBX 34 40 0 -8
BITMAP
001ffc0000
001ffc0000
001ffc0000
001ffc0000
1ffc000000
1ffc000000
1ffc000000
1ffc000000
001fc00000
001fc00000
001fc00000
001fc00000
01fdfc0000
01fdfc0000
01fdfc0000
01fdfc0000
1fc01fc000
1fc01fc000
1fc01fc000
1fc01fc000
fffffffc00
fffffffc00
fffffffc00
fffffffc00
fc0001fc00
fc0001fc00
fc0001fc00
fc0001fc00
fc0001fc00
fc0001fc00
fc0001fc00
fc0001fc00
0000000000
0000000000
0000000000
0000000000
0000000000
0000000000
0000000000
0000000000
ENDCHAR
STARTCHAR U+00C0
ENCODING 192
SWIDTH 1000 0
DWIDTH 34 0
BBX 34 40 0 -8
BITMAP
01ffc00000
01ffc00000
01ffc00000
01ffc00000
0001ffc000
0001ffc000
0001ffc000
0001ffc000
001fc00000
001fc00000
001fc00000
001fc00000
01fdfc0000
01fdfc0000
01fdfc0000
01fdfc0000
1fc01fc000
1fc01fc000
1fc01fc000
1fc01fc000
fffffffc00
fffffffc00
fffffffc00
fffffffc00
fc0001fc00
fc0001fc00
fc0001fc00
fc0001fc00
fc0001fc00
fc0001fc00
fc0001fc00
fc0001fc00
0000000000
0000000000
0000000000
0000000000
0000000000
0000000000
0000000000
0000000000
ENDCHAR
STARTCHAR U+00BF
ENCODING 191
SWIDTH 1000 0
DWIDTH 34 0
BBX 34 40 0 -8
BITMAP
0000000000
0000000000
0000000000
0000000000
001fc00000
001fc00000
001fc00000
001fc00000
0000000000
0000000000
0000000000
0000000000
001fc00000
001fc00000
001fc00000
001fc00000
001fc00000
001fc00000
001fc00000
001fc00000
1ffc000000
1ffc000000
1ffc000000
1ffc000000
fc0001fc00
fc0001fc00
fc0001fc00
fc0001fc00
1fffffc000
1fffffc000
1fffffc000
1fffffc000
0000000000
0000000000
0000000000
0000000000
0000000000
0000000000
0000000000
0000000000
ENDCHAR
STARTCHAR U+00BE
ENCODING 190
SWIDTH 1000 0
DWIDTH 34 0
BBX 34 40 0 -8
BITMAP
ffffc00000
ffffc00000
ffffc00000
ffffc00000
001fc00000
001fc00000
001fc00000
001fc00000
1ffc1fc000
1ffc1fc000
1ffc1fc000
1ffc1fc000
001ffc0000
001ffc0000
001ffc0000
001ffc0000
ffffc00000
ffffc00000
ffffc00000
ffffc00000
01fc1fc000
01fc1fc000
01fc1fc000
01fc1fc000
1fc1ffc000
1fc1ffc000
1fc1ffc000
1fc1ffc000
fc1fdfc000
fc1fdfc000
fc1fdfc000
fc1fdfc000
01fffffc00
01fffffc00
01fffffc00
01fffffc00
00001fc000
00001fc000
00001fc000
00001fc000
ENDCHAR
STARTCHAR U+00BD
ENCODING 189
SWIDTH 1000 0
DWIDTH 34 0
BBX 34 40 0 -8
BITMAP
0000000000
0000000000
0000000000
0000000000
1fc0000000
1fc0000000
1fc0000000
1fc0000000
ffc01fc000
ffc01fc000
ffc01fc000
ffc01fc000
1fc1fc0000
1fc1fc0000
1fc1fc0000
1fc1fc0000
1fdfc00000
1fdfc00000
1fdfc00000
1fdfc00000
01fdffc000
01fdffc000
01fdffc000
01fdffc000
1fdfc1fc00
1fdfc1fc00
1fdfc1fc00
1fdfc1fc00
fc001fc000
fc001fc000
fc001fc000
fc001fc000
0001fc0000
0001fc0000
0001fc0000
0001fc0000
001ffffc00
001ffffc00
001ffffc00
001ffffc00
ENDCHAR
STARTCHAR U+00BC
ENCODING 188
SWIDTH 1000 0
DWIDTH 34 0
BBX 34 40 0 -8
BITMAP
0000000000
0000000000
0000000000
0000000000
1fc0000000
1fc0000000
1fc0000000
1fc0000000
ffc01fc000
ffc01fc000
ffc01fc000
ffc01fc000
1fc1fc0000
1fc1fc0000
1fc1fc0000
1fc1fc0000
1fdfc00000
1fdfc00000
1fdfc00000
1fdfc00000
01fc1fc000
01fc1fc000
01fc1fc000
01fc1fc000
1fc1ffc000
1fc1ffc000
1fc1ffc000
1fc1ffc000
fc1fdfc000
fc1fdfc000
fc1fdfc000
fc1fdfc000
01fffffc00
01fffffc00
01fffffc00
01fffffc00
00001fc000
00001fc000
00001fc000
00001fc000
ENDCHAR
STARTCHAR U+00BB
ENCODING 187
SWIDTH 1000 0
DWIDTH 34 0
BBX 34 40 0 -8
BITMAP
0000000000
0000000000
0000000000
0000000000
fc1fc00000
fc1fc00000
fc1fc00000
fc1fc00000
1fc1fc0000
1fc1fc0000
1fc1fc0000
1fc1fc0000
01fc1fc000
01fc1fc000
01fc1fc000
01fc1fc000
001fc1fc00
001fc1fc00
001fc1fc00
001fc1fc00
01fc1fc000
01fc1fc000
01fc1fc000
01fc1fc000
1fc1fc0000
1fc1fc0000
1fc1fc0000
1fc1fc0000
fc1fc00000
fc1fc00000
fc1fc00000
fc1fc00000
0000000000
0000000000
0000000000
0000000000
0000000000
0000000000
0000000000
0000000000
ENDCHAR
STARTCHAR U+00BA
ENCODING 186
SWIDTH 1000 0
DWIDTH 34 0
BBX 34 40 0 -8
BITMAP
0000000000
0000000000
0000000000
0000000000
1fffffc000
1fffffc000
1fffffc000
1fffffc000
fc0001fc00
fc0001fc00
fc0001fc00
fc0001fc00
fc0001fc00
fc0001fc00
fc0001fc00
fc0001fc00
fc0001fc00
fc0001fc00
fc0001fc00
fc0001fc00
1fffffc000
1fffffc000
1fffffc000
1fffffc000
0000000000
0000000000
0000000000
0000000000
fffffffc00
fffffffc00
fffffffc00
fffffffc00
0000000000
0000000000
0000000000
0000000000
0000000000
0000000000
0000000000
0000000000
ENDCHAR
STARTCHAR U+00B9
ENCODING 185
SWIDTH 1000 0
DWIDTH 34 0
BBX 34 40 0 -8
BITMAP
001fc00000
001fc00000
001fc00000
001fc00000
01ffc00000
01ffc00000
01ffc00000
01ffc00000
001fc00000
001fc00000
001fc00000
001fc00000
001fc00000
001fc00000
001fc00000
001fc00000
01fffc0000
01fffc0000
01fffc0000
01fffc0000
0000000000
0000000000
0000000000
0000000000
0000000000
0000000000
0000000000
0000000000
0000000000
0000000000
0000000000
0000000000
0000000000
0000000000
0000000000
0000000000
0000000000
0000000000
0000000000
0000000000
ENDCHAR
STARTCHAR U+00B8
ENCODING 184
SWIDTH 1000 0
DWIDTH 34 0
BBX 34 40 0 -8
BITMAP
0000000000
0000000000
0000000000
0000000000
0000000000
0000000000
0000000000
0000000000
0000000000
0000000000
0000000000
0000000000
0000000000
0000000000
0000000000
0000000000
0000000000
0000000000
0000000000
0000000000
0000000000
0000000000
0000000000
0000000000
0000000000
0000000000
0000000000
0000000000
0000000000
0000000000
0000000000
0000000000
0001fc0000
0001fc0000
0001fc0000
0001fc0000
01fffc0000
01fffc0000
01fffc0000
01fffc0000
ENDCHAR
STARTCHAR U+2022
ENCODING 8226
SWIDTH 1000 0
DWIDTH 34 0
BBX 34 40 0 -8
BITMAP
0000000000
0000000000
0000000000
0000000000
0000000000
0000000000
0000000000
0000000000
0000000000
0000000000
0000000000
0000000000
01ffc00000
01ffc00000
01ffc00000
01ffc00000
01ffc00000
01ffc00000
01ffc00000
01ffc00000
0000000000
0000000000
0000000000
0000000000
0000000000
0000000000
0000000000
0000000000
0000000000
0000000000
0000000000
0000000000
0000000000
0000000000
0000000000
0000000000
0000000000
0000000000
0000000000
0000000000
ENDCHAR
STARTCHAR U+00B6
ENCODING 182
SWIDTH 1000 0
DWIDTH 34 0
BBX 34 40 0 -8
BITMAP
0000000000
0000000000
0000000000
0000000000
1ffffffc00
1ffffffc00
1ffffffc00
1ffffffc00
ffc1fdfc00
ffc1fdfc00
ffc1fdfc00
ffc1fdfc00
ffc1fdfc00
ffc1fdfc00
ffc1fdfc00
ffc1fdfc00
1ffffffc00
1ffffffc00
1ffffffc00
1ffffffc00
0001fdfc00
0001fdfc00
0001fdfc00
0001fdfc00
0001fdfc00
0001fdfc00
0001fdfc00
0001fdfc00
0001fdfc00
0001fdfc00
0001fdfc00
0001fdfc00
0000000000
0000000000
0000000000
0000000000
0000000000
0000000000
0000000000
0000000000
ENDCHAR
STARTCHAR U+00B5
ENCODING 181
SWIDTH 1000 0
DWIDTH 34 0
BBX 34 40 0 -8
BITMAP
0000000000
0000000000
0000000000
0000000000
0000000000
0000000000
0000000000
0000000000
0000000000
0000000000
0000000000
0000000000
1fc001fc00
1fc001fc00
1fc001fc00
1fc001fc00
1fc001fc00
1fc001fc00
1fc001fc00
1fc001fc00
1fc001fc00
1fc001fc00
1fc001fc00
1fc001fc00
1ffc1ffc00
1ffc1ffc00
1ffc1ffc00
1ffc1ffc00
1fdffdfc00
1fdffdfc00
1fdffdfc00
1fdffdfc00
1fc0000000
1fc0000000
1fc0000000
1fc0000000
fc00000000
fc00000000
fc00000000
fc00000000
ENDCHAR
STARTCHAR U+00B4
ENCODING 180
SWIDTH 1000 0
DWIDTH 34 0
BBX 34 40 0 -8
BITMAP
0000000000
0000000000
0000000000
0000000000
0001ffc000
0001ffc000
0001ffc000
0001ffc000
0001fc0000
0001fc0000
0001fc0000
0001fc0000
001fc00000
001fc00000
001fc00000
001fc00000
0000000000
0000000000
0000000000
0000000000
0000000000
0000000000
0000000000
0000000000
0000000000
0000000000
0000000000
0000000000
0000000000
0000000000
0000000000
0000000000
0000000000
0000000000
0000000000
0000000000
0000000000
0000000000
0000000000
0000000000
ENDCHAR
STARTCHAR U+00B3
ENCODING 179
SWIDTH 1000 0
DWIDTH 34 0
BBX 34 40 0 -8
BITMAP
1fffffc000
1fffffc000
1fffffc000
1fffffc000
00001fc000
00001fc000
00001fc000
00001fc000
001ffc0000
001ffc0000
001ffc0000
001ffc0000
00001fc000
00001fc000
00001fc000
00001fc000
1ffffc0000
1ffffc0000
1ffffc0000
1ffffc0000
0000000000
0000000000
0000000000
0000000000
0000000000
0000000000
0000000000
0000000000
0000000000
0000000000
0000000000
0000000000
0000000000
0000000000
0000000000
0000000000
0000000000
0000000000
0000000000
0000000000
ENDCHAR
STARTCHAR U+00B2
ENCODING 178
SWIDTH 1000 0
DWIDTH 34 0
BBX 34 40 0 -8
BITMAP
01fffc0000
01fffc0000
01fffc0000
01fffc0000
1fc01fc000
1fc01fc000
1fc01fc000
1fc01fc000
001ffc0000
001ffc0000
001ffc0000
001ffc0000
01fc000000
01fc000000
01fc000000
01fc000000
1fffffc000
1fffffc000
1fffffc000
1fffffc000
0000000000
0000000000
0000000000
0000000000
0000000000
0000000000
0000000000
0000000000
0000000000
0000000000
0000000000
0000000000
0000000000
0000000000
0000000000
0000000000
0000000000
0000000000
0000000000
0000000000
ENDCHAR
STARTCHAR U+00AF
ENCODING 175
SWIDTH 1000 0
DWIDTH 34 0
BBX 34 40 0 -8
BITMAP
1fffffc000
1fffffc000
1fffffc000
1fffffc000
0000000000
0000000000
0000000000
0000000000
0000000000
0000000000
0000000000
0000000000
0000000000
0000000000
0000000000
0000000000
0000000000
0000000000
0000000000
0000000000
0000000000
0000000000
0000000000
0000000000
0000000000
0000000000
0000000000
0000000000
0000000000
0000000000
0000000000
0000000000
0000000000
0000000000
0000000000
0000000000
0000000000
0000000000
0000000000
0000000000
ENDCHAR
STARTCHAR U+00AE
ENCODING 174
SWIDTH 1000 0
DWIDTH 34 0
BBX 34 40 0 -8
BITMAP
0000000000
0000000000
0000000000
0000000000
01fffc0000
01fffc0000
01fffc0000
01fffc0000
1fc01fc000
1fc01fc000
1fc01fc000
1fc01fc000
fdfffdfc00
fdfffdfc00
fdfffdfc00
fdfffdfc00
fdfc1ffc00
fdfc1ffc00
fdfc1ffc00
fdfc1ffc00
fdfffdfc00
fdfffdfc00
fdfffdfc00
fdfffdfc00
fdffc1fc00
fdffc1fc00
fdffc1fc00
fdffc1fc00
1ffdffc000
1ffdffc000
1ffdffc000
1ffdffc000
01fffc0000
01fffc0000
01fffc0000
01fffc0000
0000000000
0000000000
0000000000
0000000000
ENDCHAR
STARTCHAR U+00D7
ENCODING 215
SWIDTH 1000 0
DWIDTH 34 0
BBX 34 40 0 -8
BITMAP
0000000000
0000000000
0000000000
0000000000
0000000000
0000000000
0000000000
0000000000
1fc01fc000
1fc01fc000
1fc01fc000
1fc01fc000
01fdfc0000
01fdfc0000
01fdfc0000
01fdfc0000
001fc00000
001fc00000
001fc00000
001fc00000
01fdfc0000
01fdfc0000
01fdfc0000
01fdfc0000
1fc01fc000
1fc01fc000
1fc01fc000
1fc01fc000
0000000000
0000000000
0000000000
0000000000
0000000000
0000000000
0000000000
0000000000
0000000000
0000000000
0000000000
0000000000
ENDCHAR
STARTCHAR U+00AC
ENCODING 172
SWIDTH 1000 0
DWIDTH 34 0
BBX 34 40 0 -8
BITMAP
0000000000
0000000000
0000000000
0000000000
0000000000
0000000000
0000000000
0000000000
0000000000
0000000000
0000000000
0000000000
0000000000
0000000000
0000000000
0000000000
0000000000
0000000000
0000000000
0000000000
fffffffc00
fffffffc00
fffffffc00
fffffffc00
000001fc00
000001fc00
000001fc00
000001fc00
000001fc00
000001fc00
000001fc00
000001fc00
0000000000
0000000000
0000000000
0000000000
0000000000
0000000000
0000000000
0000000000
ENDCHAR
STARTCHAR U+00AB
ENCODING 171
SWIDTH 1000 0
DWIDTH 34 0
BBX 34 40 0 -8
BITMAP
0000000000
0000000000
0000000000
0000000000
001fc1fc00
001fc1fc00
001fc1fc00
001fc1fc00
01fc1fc000
01fc1fc000
01fc1fc000
01fc1fc000
1fc1fc0000
1fc1fc0000
1fc1fc0000
1fc1fc0000
fc1fc00000
fc1fc00000
fc1fc00000
fc1fc00000
1fc1fc0000
1fc1fc0000
1fc1fc0000
1fc1fc0000
01fc1fc000
01fc1fc000
01fc1fc000
01fc1fc000
001fc1fc00
001fc1fc00
001fc1fc00
001fc1fc00
0000000000
0000000000
0000000000
0000000000
0000000000
0000000000
0000000000
0000000000
ENDCHAR
STARTCHAR U+00AA
ENCODING 170
SWIDTH 1000 0
DWIDTH 34 0
BBX 34 40 0 -8
BITMAP
0000000000
0000000000
0000000000
0000000000
1fffffc000
1fffffc000
1fffffc000
1fffffc000
000001fc00
000001fc00
000001fc00
000001fc00
1ffffffc00
1ffffffc00
1ffffffc00
1ffffffc00
fc001ffc00
fc001ffc00
fc001ffc00
fc001ffc00
1ffffdfc00
1ffffdfc00
1ffffdfc00
1ffffdfc00
0000000000
0000000000
0000000000
0000000000
fffffffc00
fffffffc00
fffffffc00
fffffffc00
0000000000
0000000000
0000000000
0000000000
0000000000
0000000000
0000000000
0000000000
ENDCHAR
STARTCHAR U+00A9
ENCODING 169
SWIDTH 1000 0
DWIDTH 34 0
BBX 34 40 0 -8
BITMAP
0000000000
0000000000
0000000000
0000000000
01fffc0000
01fffc0000
01fffc0000
01fffc0000
1fc01fc000
1fc01fc000
1fc01fc000
1fc01fc000
fc1ffdfc00
fc1ffdfc00
fc1ffdfc00
fc1ffdfc00
fdfc01fc00
fdfc01fc00
fdfc01fc00
fdfc01fc00
fdfc01fc00
fdfc01fc00
fdfc01fc00
fdfc01fc00
fc1ffdfc00
fc1ffdfc00
fc1ffdfc00
fc1ffdfc00
1fc01fc000
1fc01fc000
1fc01fc000
1fc01fc000
01fffc0000
01fffc0000
01fffc0000
01fffc0000
0000000000
0000000000
0000000000
0000000000
ENDCHAR
STARTCHAR U+00A4
ENCODING 164
SWIDTH 1000 0
DWIDTH 34 0
BBX 34 40 0 -8
BITMAP
0000000000
0000000000
0000000000
0000000000
0000000000
0000000000
0000000000
0000000000
fc0001fc00
fc0001fc00
fc0001fc00
fc0001fc00
1fffffc000
1fffffc000
1fffffc000
1fffffc000
1fc01fc000
1fc01fc000
1fc01fc000
1fc01fc000
1fffffc000
1fffffc000
1fffffc000
1fffffc000
fc0001fc00
fc0001fc00
fc0001fc00
fc0001fc00
0000000000
0000000000
0000000000
0000000000
0000000000
0000000000
0000000000
0000000000
0000000000
0000000000
0000000000
0000000000
ENDCHAR
STARTCHAR U+00A7
ENCODING 167
SWIDTH 1000 0
DWIDTH 34 0
BBX 34 40 0 -8
BITMAP
0000000000
0000000000
0000000000
0000000000
01ffffc000
01ffffc000
01ffffc000
01ffffc000
1fc0000000
1fc0000000
1fc0000000
1fc0000000
01fffc0000
01fffc0000
01fffc0000
01fffc0000
1fc01fc000
1fc01fc000
1fc01fc000
1fc01fc000
01fffc0000
01fffc0000
01fffc0000
01fffc0000
00001fc000
00001fc000
00001fc000
00001fc000
1ffffc0000
1ffffc0000
1ffffc0000
1ffffc0000
0000000000
0000000000
0000000000
0000000000
0000000000
0000000000
0000000000
0000000000
ENDCHAR
STARTCHAR U+00A6
ENCODING 166
SWIDTH 1000 0
DWIDTH 34 0
BBX 34 40 0 -8
BITMAP
0000000000
0000000000
0000000000
0000000000
001fc00000
001fc00000
001fc00000
001fc00000
001fc00000
001fc00000
001fc00000
001fc00000
001fc00000
001fc00000
001fc00000
001fc00000
0000000000
0000000000
0000000000
0000000000
001fc00000
001fc00000
001fc00000
001fc00000
001fc00000
001fc00000
001fc00000
001fc00000
001fc00000
001fc00000
001fc00000
001fc00000
0000000000
0000000000
0000000000
0000000000
0000000000
0000000000
0000000000
0000000000
ENDCHAR
STARTCHAR U+00A5
ENCODING 165
SWIDTH 1000 0
DWIDTH 34 0
BBX 34 40 0 -8
BITMAP
0000000000
0000000000
0000000000
0000000000
fc0001fc00
fc0001fc00
fc0001fc00
fc0001fc00
1fc01fc000
1fc01fc000
1fc01fc000
1fc01fc000
01fdfc0000
01fdfc0000
01fdfc0000
01fdfc0000
001fc00000
001fc00000
001fc00000
001fc00000
fffffffc00
fffffffc00
fffffffc00
fffffffc00
001fc00000
001fc00000
001fc00000
001fc00000
001fc00000
001fc00000
001fc00000
001fc00000
0000000000
0000000000
0000000000
0000000000
0000000000
0000000000
0000000000
0000000000
ENDCHAR
STARTCHAR U+00A8
ENCODING 168
SWIDTH 1000 0
DWIDTH 34 0
BBX 34 40 0 -8
BITMAP
1fc01fc000
1fc01fc000
1fc01fc000
1fc01fc000
0000000000
0000000000
0000000000
0000000000
0000000000
0000000000
0000000000
0000000000
0000000000
0000000000
0000000000
0000000000
0000000000
0000000000
0000000000
0000000000
0000000000
0000000000
0000000000
0000000000
0000000000
0000000000
0000000000
0000000000
0000000000
0000000000
0000000000
0000000000
0000000000
0000000000
0000000000
0000000000
0000000000
0000000000
0000000000
0000000000
ENDCHAR
STARTCHAR U+00A2
ENCODING 162
SWIDTH 1000 0
DWIDTH 34 0
BBX 34 40 0 -8
BITMAP
0000000000
0000000000
0000000000
0000000000
0000000000
0000000000
0000000000
0000000000
001fc00000
001fc00000
001fc00000
001fc00000
1fffffc000
1fffffc000
1fffffc000
1fffffc000
fc1fc1fc00
fc1fc1fc00
fc1fc1fc00
fc1fc1fc00
fc1fc00000
fc1fc00000
fc1fc00000
fc1fc00000
fc1fc1fc00
fc1fc1fc00
fc1fc1fc00
fc1fc1fc00
1fffffc000
1fffffc000
1fffffc000
1fffffc000
001fc00000
001fc00000
001fc00000
001fc00000
0000000000
0000000000
0000000000
0000000000
ENDCHAR
STARTCHAR U+00A1
ENCODING 161
SWIDTH 1000 0
DWIDTH 34 0
BBX 34 40 0 -8
BITMAP
0000000000
0000000000
0000000000
0000000000
001fc00000
001fc00000
001fc00000
001fc00000
0000000000
0000000000
0000000000
0000000000
001fc00000
001fc00000
001fc00000
001fc00000
001fc00000
001fc00000
001fc00000
001fc00000
001fc00000
001fc00000
001fc00000
001fc00000
001fc00000
001fc00000
001fc00000
001fc00000
001fc00000
001fc00000
001fc00000
001fc00000
0000000000
0000000000
0000000000
0000000000
0000000000
0000000000
0000000000
0000000000
ENDCHAR
STARTCHAR U+201F
ENCODING 8223
SWIDTH 1000 0
DWIDTH 34 0
BBX 34 40 0 -8
BITMAP
0000000000
0000000000
0000000000
0000000000
1ffdffc000
1ffdffc000
1ffdffc000
1ffdffc000
1fc1fc0000
1fc1fc0000
1fc1fc0000
1fc1fc0000
01fc1fc000
01fc1fc000
01fc1fc000
01fc1fc000
0000000000
0000000000
0000000000
0000000000
0000000000
0000000000
0000000000
0000000000
0000000000
0000000000
0000000000
0000000000
0000000000
0000000000
0000000000
0000000000
0000000000
0000000000
0000000000
0000000000
0000000000
0000000000
0000000000
0000000000
ENDCHAR
STARTCHAR U+201E
ENCODING 8222
SWIDTH 1000 0
DWIDTH 34 0
BBX 34 40 0 -8
BITMAP
0000000000
0000000000
0000000000
0000000000
0000000000
0000000000
0000000000
0000000000
0000000000
0000000000
0000000000
0000000000
0000000000
0000000000
0000000000
0000000000
0000000000
0000000000
0000000000
0000000000
0000000000
0000000000
0000000000
0000000000
0000000000
0000000000
0000000000
0000000000
1fc1fc0000
1fc1fc0000
1fc1fc0000
1fc1fc0000
1fc1fc0000
1fc1fc0000
1fc1fc0000
1fc1fc0000
0000000000
0000000000
0000000000
0000000000
ENDCHAR
STARTCHAR U+201D
ENCODING 8221
SWIDTH 1000 0
DWIDTH 34 0
BBX 34 40 0 -8
BITMAP
0000000000
0000000000
0000000000
0000000000
1ffc1ffc00
1ffc1ffc00
1ffc1ffc00
1ffc1ffc00
01fc01fc00
01fc01fc00
01fc01fc00
01fc01fc00
1fc01fc000
1fc01fc000
1fc01fc000
1fc01fc000
0000000000
0000000000
0000000000
0000000000
0000000000
0000000000
0000000000
0000000000
0000000000
0000000000
0000000000
0000000000
0000000000
0000000000
0000000000
0000000000
0000000000
0000000000
0000000000
0000000000
0000000000
0000000000
0000000000
0000000000
ENDCHAR
STARTCHAR U+201C
ENCODING 8220
SWIDTH 1000 0
DWIDTH 34 0
BBX 34 40 0 -8
BITMAP
0000000000
0000000000
0000000000
0000000000
01fc01fc00
01fc01fc00
01fc01fc00
01fc01fc00
1fc01fc000
1fc01fc000
1fc01fc000
1fc01fc000
1ffc1ffc00
1ffc1ffc00
1ffc1ffc00
1ffc1ffc00
0000000000
0000000000
0000000000
0000000000
0000000000
0000000000
0000000000
0000000000
0000000000
0000000000
0000000000
0000000000
0000000000
0000000000
0000000000
0000000000
0000000000
0000000000
0000000000
0000000000
0000000000
0000000000
0000000000
0000000000
ENDCHAR
STARTCHAR U+201B
ENCODING 8219
SWIDTH 1000 0
DWIDTH 34 0
BBX 34 40 0 -8
BITMAP
0000000000
0000000000
0000000000
0000000000
001fc00000
001fc00000
001fc00000
001fc00000
001fc00000
001fc00000
001fc00000
001fc00000
001fc00000
001fc00000
001fc00000
001fc00000
0000000000
0000000000
0000000000
0000000000
0000000000
0000000000
0000000000
0000000000
0000000000
0000000000
0000000000
0000000000
0000000000
0000000000
0000000000
0000000000
0000000000
0000000000
0000000000
0000000000
0000000000
0000000000
0000000000
0000000000
ENDCHAR
STARTCHAR U+201A
ENCODING 8218
SWIDTH 1000 0
DWIDTH 34 0
BBX 34 40 0 -8
BITMAP
0000000000
0000000000
0000000000
0000000000
0000000000
0000000000
0000000000
0000000000
0000000000
0000000000
0000000000
0000000000
0000000000
0000000000
0000000000
0000000000
0000000000
0000000000
0000000000
0000000000
001fc00000
001fc00000
001fc00000
001fc00000
001fc00000
001fc00000
001fc00000
001fc00000
001fc00000
001fc00000
001fc00000
001fc00000
0000000000
0000000000
0000000000
0000000000
0000000000
0000000000
0000000000
0000000000
ENDCHAR
STARTCHAR U+2019
ENCODING 8217
SWIDTH 1000 0
DWIDTH 34 0
BBX 34 40 0 -8
BITMAP
0000000000
0000000000
0000000000
0000000000
1ffc000000
1ffc000000
1ffc000000
1ffc000000
01fc000000
01fc000000
01fc000000
01fc000000
1fc0000000
1fc0000000
1fc0000000
1fc0000000
0000000000
0000000000
0000000000
0000000000
0000000000
0000000000
0000000000
0000000000
0000000000
0000000000
0000000000
0000000000
0000000000
0000000000
0000000000
0000000000
0000000000
0000000000
0000000000
0000000000
0000000000
0000000000
0000000000
0000000000
ENDCHAR
STARTCHAR U+2018
ENCODING 8216
SWIDTH 1000 0
DWIDTH 34 0
BBX 34 40 0 -8
BITMAP
0000000000
0000000000
0000000000
0000000000
000001fc00
000001fc00
000001fc00
000001fc00
00001fc000
00001fc000
00001fc000
00001fc000
00001ffc00
00001ffc00
00001ffc00
00001ffc00
0000000000
0000000000
0000000000
0000000000
0000000000
0000000000
0000000000
0000000000
0000000000
0000000000
0000000000
0000000000
0000000000
0000000000
0000000000
0000000000
0000000000
0000000000
0000000000
0000000000
0000000000
0000000000
0000000000
0000000000
ENDCHAR
STARTCHAR U+2017
ENCODING 8215
SWIDTH 1000 0
DWIDTH 34 0
BBX 34 40 0 -8
BITMAP
0000000000
0000000000
0000000000
0000000000
0000000000
0000000000
0000000000
0000000000
0000000000
0000000000
0000000000
0000000000
0000000000
0000000000
0000000000
0000000000
0000000000
0000000000
0000000000
0000000000
0000000000
0000000000
0000000000
0000000000
0000000000
0000000000
0000000000
0000000000
fffffffc00
fffffffc00
fffffffc00
fffffffc00
0000000000
0000000000
0000000000
0000000000
fffffffc00
fffffffc00
fffffffc00
fffffffc00
ENDCHAR
STARTCHAR U+2016
ENCODING 8214
SWIDTH 1000 0
DWIDTH 34 0
BBX 34 40 0 -8
BITMAP
0000000000
0000000000
0000000000
0000000000
001fdfc000
001fdfc000
001fdfc000
001fdfc000
001fdfc000
001fdfc000
001fdfc000
001fdfc000
001fdfc000
001fdfc000
001fdfc000
001fdfc000
001fdfc000
001fdfc000
001fdfc000
001fdfc000
001fdfc000
001fdfc000
001fdfc000
001fdfc000
001fdfc000
001fdfc000
001fdfc000
001fdfc000
001fdfc000
001fdfc000
001fdfc000
001fdfc000
0000000000
0000000000
0000000000
0000000000
0000000000
0000000000
0000000000
0000000000
ENDCHAR
STARTCHAR U+2015
ENCODING 8213
SWIDTH 1000 0
DWIDTH 34 0
BBX 34 40 0 -8
BITMAP
0000000000
0000000000
0000000000
0000000000
0000000000
0000000000
0000000000
0000000000
0000000000
0000000000
0000000000
0000000000
0000000000
0000000000
0000000000
0000000000
ffffffffc0
ffffffffc0
ffffffffc0
ffffffffc0
0000000000
0000000000
0000000000
0000000000
0000000000
0000000000
0000000000
0000000000
0000000000
0000000000
0000000000
0000000000
0000000000
0000000000
0000000000
0000000000
0000000000
0000000000
0000000000
0000000000
ENDCHAR
STARTCHAR U+2014
ENCODING 8212
SWIDTH 1000 0
DWIDTH 34 0
BBX 34 40 0 -8
BITMAP
0000000000
0000000000
0000000000
0000000000
0000000000
0000000000
0000000000
0000000000
0000000000
0000000000
0000000000
0000000000
0000000000
0000000000
0000000000
0000000000
fffffffc00
fffffffc00
fffffffc00
fffffffc00
0000000000
0000000000
0000000000
0000000000
0000000000
0000000000
0000000000
0000000000
0000000000
0000000000
0000000000
0000000000
0000000000
0000000000
0000000000
0000000000
0000000000
0000000000
0000000000
0000000000
ENDCHAR
STARTCHAR U+2013
ENCODING 8211
SWIDTH 1000 0
DWIDTH 34 0
BBX 34 40 0 -8
BITMAP
0000000000
0000000000
0000000000
0000000000
0000000000
0000000000
0000000000
0000000000
0000000000
0000000000
0000000000
0000000000
0000000000
0000000000
0000000000
0000000000
01ffffc000
01ffffc000
01ffffc000
01ffffc000
0000000000
0000000000
0000000000
0000000000
0000000000
0000000000
0000000000
0000000000
0000000000
0000000000
0000000000
0000000000
0000000000
0000000000
0000000000
0000000000
0000000000
0000000000
0000000000
0000000000
ENDCHAR
STARTCHAR U+2012
ENCODING 8210
SWIDTH 1000 0
DWIDTH 34 0
BBX 34 40 0 -8
BITMAP
0000000000
0000000000
0000000000
0000000000
0000000000
0000000000
0000000000
0000000000
0000000000
0000000000
0000000000
0000000000
0000000000
0000000000
0000000000
0000000000
1fffffc000
1fffffc000
1fffffc000
1fffffc000
0000000000
0000000000
0000000000
0000000000
0000000000
0000000000
0000000000
0000000000
0000000000
0000000000
0000000000
0000000000
0000000000
0000000000
0000000000
0000000000
0000000000
0000000000
0000000000
0000000000
ENDCHAR
STARTCHAR U+2011
ENCODING 8209
SWIDTH 1000 0
DWIDTH 34 0
BBX 34 40 0 -8
BITMAP
0000000000
0000000000
0000000000
0000000000
0000000000
0000000000
0000000000
0000000000
0000000000
0000000000
0000000000
0000000000
0000000000
0000000000
0000000000
0000000000
01fffc0000
01fffc0000
01fffc0000
01fffc0000
0000000000
0000000000
0000000000
0000000000
0000000000
0000000000
0000000000
0000000000
0000000000
0000000000
0000000000
0000000000
0000000000
0000000000
0000000000
0000000000
0000000000
0000000000
0000000000
0000000000
ENDCHAR
STARTCHAR U+2010
ENCODING 8208
SWIDTH 1000 0
DWIDTH 34 0
BBX 34 40 0 -8
BITMAP
0000000000
0000000000
0000000000
0000000000
0000000000
0000000000
0000000000
0000000000
0000000000
0000000000
0000000000
0000000000
0000000000
0000000000
0000000000
0000000000
01fffc0000
01fffc0000
01fffc0000
01fffc0000
0000000000
0000000000
0000000000
0000000000
0000000000
0000000000
0000000000
0000000000
0000000000
0000000000
0000000000
0000000000
0000000000
0000000000
0000000000
0000000000
0000000000
0000000000
0000000000
0000000000
ENDCHAR
STARTCHAR U+007F
ENCODING 127
SWIDTH 1000 0
DWIDTH 34 0
BBX 34 40 0 -8
BITMAP
0000000000
0000000000
0000000000
0000000000
fffc000000
fffc000000
fffc000000
fffc000000
fc1fc00000
fc1fc00000
fc1fc00000
fc1fc00000
fc1fc00000
fc1fc00000
fc1fc00000
fc1fc00000
fc1fc00000
fc1fc00000
fc1fc00000
fc1fc00000
fffffc0000
fffffc0000
fffffc0000
fffffc0000
01fc000000
01fc000000
01fc000000
01fc000000
01fc000000
01fc000000
01fc000000
01fc000000
01fc000000
01fc000000
01fc000000
01fc000000
01fc000000
01fc000000
01fc000000
01fc000000
ENDCHAR
STARTCHAR U+007E
ENCODING 126
SWIDTH 1000 0
DWIDTH 34 0
BBX 34 40 0 -8
BITMAP
0000000000
0000000000
0000000000
0000000000
1ffc01fc00
1ffc01fc00
1ffc01fc00
1ffc01fc00
fc1fc1fc00
fc1fc1fc00
fc1fc1fc00
fc1fc1fc00
fc01ffc000
fc01ffc000
fc01ffc000
fc01ffc000
0000000000
0000000000
0000000000
0000000000
0000000000
0000000000
0000000000
0000000000
0000000000
0000000000
0000000000
0000000000
0000000000
0000000000
0000000000
0000000000
0000000000
0000000000
0000000000
0000000000
0000000000
0000000000
0000000000
0000000000
ENDCHAR
STARTCHAR U+007D
ENCODING 125
SWIDTH 1000 0
DWIDTH 34 0
BBX 34 40 0 -8
BITMAP
0000000000
0000000000
0000000000
0000000000
fffc000000
fffc000000
fffc000000
fffc000000
001fc00000
001fc00000
001fc00000
001fc00000
01fc000000
01fc000000
01fc000000
01fc000000
001ffc0000
001ffc0000
001ffc0000
001ffc0000
01fc000000
01fc000000
01fc000000
01fc000000
001fc00000
001fc00000
001fc00000
001fc00000
fffc000000
fffc000000
fffc000000
fffc000000
0000000000
0000000000
0000000000
0000000000
0000000000
0000000000
0000000000
0000000000
ENDCHAR
STARTCHAR U+007C
ENCODING 124
SWIDTH 1000 0
DWIDTH 34 0
BBX 34 40 0 -8
BITMAP
0000000000
0000000000
0000000000
0000000000
001fc00000
001fc00000
001fc00000
001fc00000
001fc00000
001fc00000
001fc00000
001fc00000
001fc00000
001fc00000
001fc00000
001fc00000
001fc00000
001fc00000
001fc00000
001fc00000
001fc00000
001fc00000
001fc00000
001fc00000
001fc00000
001fc00000
001fc00000
001fc00000
001fc00000
001fc00000
001fc00000
001fc00000
0000000000
0000000000
0000000000
0000000000
0000000000
0000000000
0000000000
0000000000
ENDCHAR
STARTCHAR U+007B
ENCODING 123
SWIDTH 1000 0
DWIDTH 34 0
BBX 34 40 0 -8
BITMAP
0000000000
0000000000
0000000000
0000000000
0001fffc00
0001fffc00
0001fffc00
0001fffc00
001fc00000
001fc00000
001fc00000
001fc00000
0001fc0000
0001fc0000
0001fc0000
0001fc0000
01ffc00000
01ffc00000
01ffc00000
01ffc00000
0001fc0000
0001fc0000
0001fc0000
0001fc0000
001fc00000
001fc00000
001fc00000
001fc00000
0001fffc00
0001fffc00
0001fffc00
0001fffc00
0000000000
0000000000
0000000000
0000000000
0000000000
0000000000
0000000000
0000000000
ENDCHAR
STARTCHAR U+007A
ENCODING 122
SWIDTH 1000 0
DWIDTH 34 0
BBX 34 40 0 -8
BITMAP
0000000000
0000000000
0000000000
0000000000
0000000000
0000000000
0000000000
0000000000
0000000000
0000000000
0000000000
0000000000
fffffffc00
fffffffc00
fffffffc00
fffffffc00
00001fc000
00001fc000
00001fc000
00001fc000
001ffc0000
001ffc0000
001ffc0000
001ffc0000
01fc000000
01fc000000
01fc000000
01fc000000
fffffffc00
fffffffc00
fffffffc00
fffffffc00
0000000000
0000000000
0000000000
0000000000
0000000000
0000000000
0000000000
0000000000
ENDCHAR
STARTCHAR U+0079
ENCODING 121
SWIDTH 1000 0
DWIDTH 34 0
BBX 34 40 0 -8
BITMAP
0000000000
0000000000
0000000000
0000000000
0000000000
0000000000
0000000000
0000000000
0000000000
0000000000
0000000000
0000000000
fc001fc000
fc001fc000
fc001fc000
fc001fc000
fc001fc000
fc001fc000
fc001fc000
fc001fc000
fc01ffc000
fc01ffc000
fc01ffc000
fc01ffc000
1fffdfc000
1fffdfc000
1fffdfc000
1fffdfc000
00001fc000
00001fc000
00001fc000
00001fc000
fc001fc000
fc001fc000
fc001fc000
fc001fc000
1ffffc0000
1ffffc0000
1ffffc0000
1ffffc0000
ENDCHAR
STARTCHAR U+0078
ENCODING 120
SWIDTH 1000 0
DWIDTH 34 0
BBX 34 40 0 -8
BITMAP
0000000000
0000000000
0000000000
0000000000
0000000000
0000000000
0000000000
0000000000
0000000000
0000000000
0000000000
0000000000
fc001fc000
fc001fc000
fc001fc000
fc001fc000
1fc1fc0000
1fc1fc0000
1fc1fc0000
1fc1fc0000
01ffc00000
01ffc00000
01ffc00000
01ffc00000
1fc1fc0000
1fc1fc0000
1fc1fc0000
1fc1fc0000
fc001fc000
fc001fc000
fc001fc000
fc001fc000
0000000000
0000000000
0000000000
0000000000
0000000000
0000000000
0000000000
0000000000
ENDCHAR
STARTCHAR U+0077
ENCODING 119
SWIDTH 1000 0
DWIDTH 34 0
BBX 34 40 0 -8
BITMAP
0000000000
0000000000
0000000000
0000000000
0000000000
0000000000
0000000000
0000000000
0000000000
0000000000
0000000000
0000000000
fc0001fc00
fc0001fc00
fc0001fc00
fc0001fc00
fc0001fc00
fc0001fc00
fc0001fc00
fc0001fc00
fc1fc1fc00
fc1fc1fc00
fc1fc1fc00
fc1fc1fc00
fdfdfdfc00
fdfdfdfc00
fdfdfdfc00
fdfdfdfc00
1fc01fc000
1fc01fc000
1fc01fc000
1fc01fc000
0000000000
0000000000
0000000000
0000000000
0000000000
0000000000
0000000000
0000000000
ENDCHAR
STARTCHAR U+0076
ENCODING 118
SWIDTH 1000 0
DWIDTH 34 0
BBX 34 40 0 -8
BITMAP
0000000000
0000000000
0000000000
0000000000
0000000000
0000000000
0000000000
0000000000
0000000000
0000000000
0000000000
0000000000
fc0001fc00
fc0001fc00
fc0001fc00
fc0001fc00
fc0001fc00
fc0001fc00
fc0001fc00
fc0001fc00
1fc01fc000
1fc01fc000
1fc01fc000
1fc01fc000
01fdfc0000
01fdfc0000
01fdfc0000
01fdfc0000
001fc00000
001fc00000
001fc00000
001fc00000
0000000000
0000000000
0000000000
0000000000
0000000000
0000000000
0000000000
0000000000
ENDCHAR
STARTCHAR U+0075
ENCODING 117
SWIDTH 1000 0
DWIDTH 34 0
BBX 34 40 0 -8
BITMAP
0000000000
0000000000
0000000000
0000000000
0000000000
0000000000
0000000000
0000000000
0000000000
0000000000
0000000000
0000000000
fc001fc000
fc001fc000
fc001fc000
fc001fc000
fc001fc000
fc001fc000
fc001fc000
fc001fc000
fc001fc000
fc001fc000
fc001fc000
fc001fc000
fc001fc000
fc001fc000
fc001fc000
fc001fc000
1ffffdfc00
1ffffdfc00
1ffffdfc00
1ffffdfc00
0000000000
0000000000
0000000000
0000000000
0000000000
0000000000
0000000000
0000000000
ENDCHAR
STARTCHAR U+0074
ENCODING 116
SWIDTH 1000 0
DWIDTH 34 0
BBX 34 40 0 -8
BITMAP
0000000000
0000000000
0000000000
0000000000
01fc000000
01fc000000
01fc000000
01fc000000
01fc000000
01fc000000
01fc000000
01fc000000
fffffc0000
fffffc0000
fffffc0000
fffffc0000
01fc000000
01fc000000
01fc000000
01fc000000
01fc000000
01fc000000
01fc000000
01fc000000
01fc1fc000
01fc1fc000
01fc1fc000
01fc1fc000
001ffc0000
001ffc0000
001ffc0000
001ffc0000
0000000000
0000000000
0000000000
0000000000
0000000000
0000000000
0000000000
0000000000
ENDCHAR
STARTCHAR U+0073
ENCODING 115
SWIDTH 1000 0
DWIDTH 34 0
BBX 34 40 0 -8
BITMAP
0000000000
0000000000
0000000000
0000000000
0000000000
0000000000
0000000000
0000000000
0000000000
0000000000
0000000000
0000000000
1fffffc000
1fffffc000
1fffffc000
1fffffc000
fc00000000
fc00000000
fc00000000
fc00000000
1fffffc000
1fffffc000
1fffffc000
1fffffc000
000001fc00
000001fc00
000001fc00
000001fc00
ffffffc000
ffffffc000
ffffffc000
ffffffc000
0000000000
0000000000
0000000000
0000000000
0000000000
0000000000
0000000000
0000000000
ENDCHAR
STARTCHAR U+0072
ENCODING 114
SWIDTH 1000 0
DWIDTH 34 0
BBX 34 40 0 -8
BITMAP
0000000000
0000000000
0000000000
0000000000
0000000000
0000000000
0000000000
0000000000
0000000000
0000000000
0000000000
0000000000
fc1fffc000
fc1fffc000
fc1fffc000
fc1fffc000
1ffc01fc00
1ffc01fc00
1ffc01fc00
1ffc01fc00
1fc0000000
1fc0000000
1fc0000000
1fc0000000
1fc0000000
1fc0000000
1fc0000000
1fc0000000
1fc0000000
1fc0000000
1fc0000000
1fc0000000
0000000000
0000000000
0000000000
0000000000
0000000000
0000000000
0000000000
0000000000
ENDCHAR
STARTCHAR U+0071
ENCODING 113
SWIDTH 1000 0
DWIDTH 34 0
BBX 34 40 0 -8
BITMAP
0000000000
0000000000
0000000000
0000000000
0000000000
0000000000
0000000000
0000000000
0000000000
0000000000
0000000000
0000000000
1ffffdfc00
1ffffdfc00
1ffffdfc00
1ffffdfc00
fc001ffc00
fc001ffc00
fc001ffc00
fc001ffc00
fc001ffc00
fc001ffc00
fc001ffc00
fc001ffc00
1ffffdfc00
1ffffdfc00
1ffffdfc00
1ffffdfc00
000001fc00
000001fc00
000001fc00
000001fc00
000001fc00
000001fc00
000001fc00
000001fc00
000001fc00
000001fc00
000001fc00
000001fc00
ENDCHAR
STARTCHAR U+0070
ENCODING 112
SWIDTH 1000 0
DWIDTH 34 0
BBX 34 40 0 -8
BITMAP
0000000000
0000000000
0000000000
0000000000
0000000000
0000000000
0000000000
0000000000
0000000000
0000000000
0000000000
0000000000
fdffffc000
fdffffc000
fdffffc000
fdffffc000
ffc001fc00
ffc001fc00
ffc001fc00
ffc001fc00
ffc001fc00
ffc001fc00
ffc001fc00
ffc001fc00
fdffffc000
fdffffc000
fdffffc000
fdffffc000
fc00000000
fc00000000
fc00000000
fc00000000
fc00000000
fc00000000
fc00000000
fc00000000
fc00000000
fc00000000
fc00000000
fc00000000
ENDCHAR
STARTCHAR U+006f
ENCODING 111
SWIDTH 1000 0
DWIDTH 34 0
BBX 34 40 0 -8
BITMAP
0000000000
0000000000
0000000000
0000000000
0000000000
0000000000
0000000000
0000000000
0000000000
0000000000
0000000000
0000000000
1fffffc000
1fffffc000
1fffffc000
1fffffc000
fc0001fc00
fc0001fc00
fc0001fc00
fc0001fc00
fc0001fc00
fc0001fc00
fc0001fc00
fc0001fc00
fc0001fc00
fc0001fc00
fc0001fc00
fc0001fc00
1fffffc000
1fffffc000
1fffffc000
1fffffc000
0000000000
0000000000
0000000000
0000000000
0000000000
0000000000
0000000000
0000000000
ENDCHAR
STARTCHAR U+006e
ENCODING 110
SWIDTH 1000 0
DWIDTH 34 0
BBX 34 40 0 -8
BITMAP
0000000000
0000000000
0000000000
0000000000
0000000000
0000000000
0000000000
0000000000
0000000000
0000000000
0000000000
0000000000
fdffffc000
fdffffc000
fdffffc000
fdffffc000
ffc001fc00
ffc001fc00
ffc001fc00
ffc001fc00
fc0001fc00
fc0001fc00
fc0001fc00
fc0001fc00
fc0001fc00
fc0001fc00
fc0001fc00
fc0001fc00
fc0001fc00
fc0001fc00
fc0001fc00
fc0001fc00
0000000000
0000000000
0000000000
0000000000
0000000000
0000000000
0000000000
0000000000
ENDCHAR
STARTCHAR U+006d
ENCODING 109
SWIDTH 1000 0
DWIDTH 34 0
BBX 34 40 0 -8
BITMAP
0000000000
0000000000
0000000000
0000000000
0000000000
0000000000
0000000000
0000000000
0000000000
0000000000
0000000000
0000000000
ffc01fc000
ffc01fc000
ffc01fc000
ffc01fc000
fdfdfdfc00
fdfdfdfc00
fdfdfdfc00
fdfdfdfc00
fc1fc1fc00
fc1fc1fc00
fc1fc1fc00
fc1fc1fc00
fc1fc1fc00
fc1fc1fc00
fc1fc1fc00
fc1fc1fc00
fc0001fc00
fc0001fc00
fc0001fc00
fc0001fc00
0000000000
0000000000
0000000000
0000000000
0000000000
0000000000
0000000000
0000000000
ENDCHAR
STARTCHAR U+006c
ENCODING 108
SWIDTH 1000 0
DWIDTH 34 0
BBX 34 40 0 -8
BITMAP
0000000000
0000000000
0000000000
0000000000
01ffc00000
01ffc00000
01ffc00000
01ffc00000
001fc00000
001fc00000
001fc00000
001fc00000
001fc00000
001fc00000
001fc00000
001fc00000
001fc00000
001fc00000
001fc00000
001fc00000
001fc00000
001fc00000
001fc00000
001fc00000
001fc00000
001fc00000
001fc00000
001fc00000
01fffc0000
01fffc0000
01fffc0000
01fffc0000
0000000000
0000000000
0000000000
0000000000
0000000000
0000000000
0000000000
0000000000
ENDCHAR
STARTCHAR U+006b
ENCODING 107
SWIDTH 1000 0
DWIDTH 34 0
BBX 34 40 0 -8
BITMAP
0000000000
0000000000
0000000000
0000000000
fc00000000
fc00000000
fc00000000
fc00000000
fc00000000
fc00000000
fc00000000
fc00000000
fc01fc0000
fc01fc0000
fc01fc0000
fc01fc0000
fc1fc00000
fc1fc00000
fc1fc00000
fc1fc00000
fffc000000
fffc000000
fffc000000
fffc000000
fc01fc0000
fc01fc0000
fc01fc0000
fc01fc0000
fc0001fc00
fc0001fc00
fc0001fc00
fc0001fc00
0000000000
0000000000
0000000000
0000000000
0000000000
0000000000
0000000000
0000000000
ENDCHAR
STARTCHAR U+006a
ENCODING 106
SWIDTH 1000 0
DWIDTH 34 0
BBX 34 40 0 -8
BITMAP
0000000000
0000000000
0000000000
0000000000
00001fc000
00001fc000
00001fc000
00001fc000
0000000000
0000000000
0000000000
0000000000
00001fc000
00001fc000
00001fc000
00001fc000
00001fc000
00001fc000
00001fc000
00001fc000
00001fc000
00001fc000
00001fc000
00001fc000
00001fc000
00001fc000
00001fc000
00001fc000
fc001fc000
fc001fc000
fc001fc000
fc001fc000
fc001fc000
fc001fc000
fc001fc000
fc001fc000
1ffffc0000
1ffffc0000
1ffffc0000
1ffffc0000
ENDCHAR
STARTCHAR U+0069
ENCODING 105
SWIDTH 1000 0
DWIDTH 34 0
BBX 34 40 0 -8
BITMAP
0000000000
0000000000
0000000000
0000000000
001fc00000
001fc00000
001fc00000
001fc00000
0000000000
0000000000
0000000000
0000000000
01ffc00000
01ffc00000
01ffc00000
01ffc00000
001fc00000
001fc00000
001fc00000
001fc00000
001fc00000
001fc00000
001fc00000
001fc00000
001fc00000
001fc00000
001fc00000
001fc00000
1fffffc000
1fffffc000
1fffffc000
1fffffc000
0000000000
0000000000
0000000000
0000000000
0000000000
0000000000
0000000000
0000000000
ENDCHAR
STARTCHAR U+0068
ENCODING 104
SWIDTH 1000 0
DWIDTH 34 0
BBX 34 40 0 -8
BITMAP
0000000000
0000000000
0000000000
0000000000
fc00000000
fc00000000
fc00000000
fc00000000
fc00000000
fc00000000
fc00000000
fc00000000
fdffffc000
fdffffc000
fdffffc000
fdffffc000
ffc001fc00
ffc001fc00
ffc001fc00
ffc001fc00
fc0001fc00
fc0001fc00
fc0001fc00
fc0001fc00
fc0001fc00
fc0001fc00
fc0001fc00
fc0001fc00
fc0001fc00
fc0001fc00
fc0001fc00
fc0001fc00
0000000000
0000000000
0000000000
0000000000
0000000000
0000000000
0000000000
0000000000
ENDCHAR
STARTCHAR U+0067
ENCODING 103
SWIDTH 1000 0
DWIDTH 34 0
BBX 34 40 0 -8
BITMAP
0000000000
0000000000
0000000000
0000000000
0000000000
0000000000
0000000000
0000000000
0000000000
0000000000
0000000000
0000000000
1ffffdfc00
1ffffdfc00
1ffffdfc00
1ffffdfc00
fc001fc000
fc001fc000
fc001fc000
fc001fc000
1ffffc0000
1ffffc0000
1ffffc0000
1ffffc0000
fc00000000
fc00000000
fc00000000
fc00000000
1fffffc000
1fffffc000
1fffffc000
1fffffc000
fc0001fc00
fc0001fc00
fc0001fc00
fc0001fc00
1fffffc000
1fffffc000
1fffffc000
1fffffc000
ENDCHAR
STARTCHAR U+0066
ENCODING 102
SWIDTH 1000 0
DWIDTH 34 0
BBX 34 40 0 -8
BITMAP
0000000000
0000000000
0000000000
0000000000
001fffc000
001fffc000
001fffc000
001fffc000
01fc01fc00
01fc01fc00
01fc01fc00
01fc01fc00
01fc000000
01fc000000
01fc000000
01fc000000
fffffc0000
fffffc0000
fffffc0000
fffffc0000
01fc000000
01fc000000
01fc000000
01fc000000
01fc000000
01fc000000
01fc000000
01fc000000
01fc000000
01fc000000
01fc000000
01fc000000
0000000000
0000000000
0000000000
0000000000
0000000000
0000000000
0000000000
0000000000
ENDCHAR
STARTCHAR U+0065
ENCODING 101
SWIDTH 1000 0
DWIDTH 34 0
BBX 34 40 0 -8
BITMAP
0000000000
0000000000
0000000000
0000000000
0000000000
0000000000
0000000000
0000000000
0000000000
0000000000
0000000000
0000000000
1fffffc000
1fffffc000
1fffffc000
1fffffc000
fc0001fc00
fc0001fc00
fc0001fc00
fc0001fc00
fffffffc00
fffffffc00
fffffffc00
fffffffc00
fc00000000
fc00000000
fc00000000
fc00000000
1fffffc000
1fffffc000
1fffffc000
1fffffc000
0000000000
0000000000
0000000000
0000000000
0000000000
0000000000
0000000000
0000000000
ENDCHAR
STARTCHAR U+0064
ENCODING 100
SWIDTH 1000 0
DWIDTH 34 0
BBX 34 40 0 -8
BITMAP
0000000000
0000000000
0000000000
0000000000
000001fc00
000001fc00
000001fc00
000001fc00
000001fc00
000001fc00
000001fc00
000001fc00
1ffffdfc00
1ffffdfc00
1ffffdfc00
1ffffdfc00
fc001ffc00
fc001ffc00
fc001ffc00
fc001ffc00
fc0001fc00
fc0001fc00
fc0001fc00
fc0001fc00
fc001ffc00
fc001ffc00
fc001ffc00
fc001ffc00
1ffffdfc00
1ffffdfc00
1ffffdfc00
1ffffdfc00
0000000000
0000000000
0000000000
0000000000
0000000000
0000000000
0000000000
0000000000
ENDCHAR
STARTCHAR U+0063
ENCODING 99
SWIDTH 1000 0
DWIDTH 34 0
BBX 34 40 0 -8
BITMAP
0000000000
0000000000
0000000000
0000000000
0000000000
0000000000
0000000000
0000000000
0000000000
0000000000
0000000000
0000000000
1fffffc000
1fffffc000
1fffffc000
1fffffc000
fc0001fc00
fc0001fc00
fc0001fc00
fc0001fc00
fc00000000
fc00000000
fc00000000
fc00000000
fc00000000
fc00000000
fc00000000
fc00000000
1ffffffc00
1ffffffc00
1ffffffc00
1ffffffc00
0000000000
0000000000
0000000000
0000000000
0000000000
0000000000
0000000000
0000000000
ENDCHAR
STARTCHAR U+0062
ENCODING 98
SWIDTH 1000 0
DWIDTH 34 0
BBX 34 40 0 -8
BITMAP
0000000000
0000000000
0000000000
0000000000
fc00000000
fc00000000
fc00000000
fc00000000
fc00000000
fc00000000
fc00000000
fc00000000
fdffffc000
fdffffc000
fdffffc000
fdffffc000
ffc001fc00
ffc001fc00
ffc001fc00
ffc001fc00
fc0001fc00
fc0001fc00
fc0001fc00
fc0001fc00
ffc001fc00
ffc001fc00
ffc001fc00
ffc001fc00
fdffffc000
fdffffc000
fdffffc000
fdffffc000
0000000000
0000000000
0000000000
0000000000
0000000000
0000000000
0000000000
0000000000
ENDCHAR
STARTCHAR U+0061
ENCODING 97
SWIDTH 1000 0
DWIDTH 34 0
BBX 34 40 0 -8
BITMAP
0000000000
0000000000
0000000000
0000000000
0000000000
0000000000
0000000000
0000000000
0000000000
0000000000
0000000000
0000000000
1fffffc000
1fffffc000
1fffffc000
1fffffc000
000001fc00
000001fc00
000001fc00
000001fc00
1ffffffc00
1ffffffc00
1ffffffc00
1ffffffc00
fc001ffc00
fc001ffc00
fc001ffc00
fc001ffc00
1ffffdfc00
1ffffdfc00
1ffffdfc00
1ffffdfc00
0000000000
0000000000
0000000000
0000000000
0000000000
0000000000
0000000000
0000000000
ENDCHAR
STARTCHAR U+0060
ENCODING 96
SWIDTH 1000 0
DWIDTH 34 0
BBX 34 40 0 -8
BITMAP
0000000000
0000000000
0000000000
0000000000
01ffc00000
01ffc00000
01ffc00000
01ffc00000
001fc00000
001fc00000
001fc00000
001fc00000
0001fc0000
0001fc0000
0001fc0000
0001fc0000
0000000000
0000000000
0000000000
0000000000
0000000000
0000000000
0000000000
0000000000
0000000000
0000000000
0000000000
0000000000
0000000000
0000000000
0000000000
0000000000
0000000000
0000000000
0000000000
0000000000
0000000000
0000000000
0000000000
0000000000
ENDCHAR
STARTCHAR U+005F
ENCODING 95
SWIDTH 1000 0
DWIDTH 34 0
BBX 34 40 0 -8
BITMAP
0000000000
0000000000
0000000000
0000000000
0000000000
0000000000
0000000000
0000000000
0000000000
0000000000
0000000000
0000000000
0000000000
0000000000
0000000000
0000000000
0000000000
0000000000
0000000000
0000000000
0000000000
0000000000
0000000000
0000000000
0000000000
0000000000
0000000000
0000000000
fffffffc00
fffffffc00
fffffffc00
fffffffc00
0000000000
0000000000
0000000000
0000000000
0000000000
0000000000
0000000000
0000000000
ENDCHAR
STARTCHAR U+005E
ENCODING 94
SWIDTH 1000 0
DWIDTH 34 0
BBX 34 40 0 -8
BITMAP
0000000000
0000000000
0000000000
0000000000
001fc00000
001fc00000
001fc00000
001fc00000
01fdfc0000
01fdfc0000
01fdfc0000
01fdfc0000
1fc01fc000
1fc01fc000
1fc01fc000
1fc01fc000
fc0001fc00
fc0001fc00
fc0001fc00
fc0001fc00
0000000000
0000000000
0000000000
0000000000
0000000000
0000000000
0000000000
0000000000
0000000000
0000000000
0000000000
0000000000
0000000000
0000000000
0000000000
0000000000
0000000000
0000000000
0000000000
0000000000
ENDCHAR
STARTCHAR U+005D
ENCODING 93
SWIDTH 1000 0
DWIDTH 34 0
BBX 34 40 0 -8
BITMAP
0000000000
0000000000
0000000000
0000000000
1ffffc0000
1ffffc0000
1ffffc0000
1ffffc0000
0001fc0000
0001fc0000
0001fc0000
0001fc0000
0001fc0000
0001fc0000
0001fc0000
0001fc0000
0001fc0000
0001fc0000
0001fc0000
0001fc0000
0001fc0000
0001fc0000
0001fc0000
0001fc0000
0001fc0000
0001fc0000
0001fc0000
0001fc0000
1ffffc0000
1ffffc0000
1ffffc0000
1ffffc0000
0000000000
0000000000
0000000000
0000000000
0000000000
0000000000
0000000000
0000000000
ENDCHAR
STARTCHAR U+005C
ENCODING 92
SWIDTH 1000 0
DWIDTH 34 0
BBX 34 40 0 -8
BITMAP
0000000000
0000000000
0000000000
0000000000
fc00000000
fc00000000
fc00000000
fc00000000
1fc0000000
1fc0000000
1fc0000000
1fc0000000
01fc000000
01fc000000
01fc000000
01fc000000
001fc00000
001fc00000
001fc00000
001fc00000
0001fc0000
0001fc0000
0001fc0000
0001fc0000
00001fc000
00001fc000
00001fc000
00001fc000
000001fc00
000001fc00
000001fc00
000001fc00
0000000000
0000000000
0000000000
0000000000
0000000000
0000000000
0000000000
0000000000
ENDCHAR
STARTCHAR U+005B
ENCODING 91
SWIDTH 1000 0
DWIDTH 34 0
BBX 34 40 0 -8
BITMAP
0000000000
0000000000
0000000000
0000000000
01ffffc000
01ffffc000
01ffffc000
01ffffc000
01fc000000
01fc000000
01fc000000
01fc000000
01fc000000
01fc000000
01fc000000
01fc000000
01fc000000
01fc000000
01fc000000
01fc000000
01fc000000
01fc000000
01fc000000
01fc000000
01fc000000
01fc000000
01fc000000
01fc000000
01ffffc000
01ffffc000
01ffffc000
01ffffc000
0000000000
0000000000
0000000000
0000000000
0000000000
0000000000
0000000000
0000000000
ENDCHAR
STARTCHAR U+005A
ENCODING 90
SWIDTH 1000 0
DWIDTH 34 0
BBX 34 40 0 -8
BITMAP
0000000000
0000000000
0000000000
0000000000
fffffffc00
fffffffc00
fffffffc00
fffffffc00
00001fc000
00001fc000
00001fc000
00001fc000
0001fc0000
0001fc0000
0001fc0000
0001fc0000
001fc00000
001fc00000
001fc00000
001fc00000
01fc000000
01fc000000
01fc000000
01fc000000
1fc0000000
1fc0000000
1fc0000000
1fc0000000
fffffffc00
fffffffc00
fffffffc00
fffffffc00
0000000000
0000000000
0000000000
0000000000
0000000000
0000000000
0000000000
0000000000
ENDCHAR
STARTCHAR U+0059
ENCODING 89
SWIDTH 1000 0
DWIDTH 34 0
BBX 34 40 0 -8
BITMAP
0000000000
0000000000
0000000000
0000000000
fc0001fc00
fc0001fc00
fc0001fc00
fc0001fc00
1fc01fc000
1fc01fc000
1fc01fc000
1fc01fc000
01fdfc0000
01fdfc0000
01fdfc0000
01fdfc0000
001fc00000
001fc00000
001fc00000
001fc00000
001fc00000
001fc00000
001fc00000
001fc00000
001fc00000
001fc00000
001fc00000
001fc00000
001fc00000
001fc00000
001fc00000
001fc00000
0000000000
0000000000
0000000000
0000000000
0000000000
0000000000
0000000000
0000000000
ENDCHAR
STARTCHAR U+0058
ENCODING 88
SWIDTH 1000 0
DWIDTH 34 0
BBX 34 40 0 -8
BITMAP
0000000000
0000000000
0000000000
0000000000
fc0001fc00
fc0001fc00
fc0001fc00
fc0001fc00
1fc01fc000
1fc01fc000
1fc01fc000
1fc01fc000
01fdfc0000
01fdfc0000
01fdfc0000
01fdfc0000
001fc00000
001fc00000
001fc00000
001fc00000
01fdfc0000
01fdfc0000
01fdfc0000
01fdfc0000
1fc01fc000
1fc01fc000
1fc01fc000
1fc01fc000
fc0001fc00
fc0001fc00
fc0001fc00
fc0001fc00
0000000000
0000000000
0000000000
0000000000
0000000000
0000000000
0000000000
0000000000
ENDCHAR
STARTCHAR U+0057
ENCODING 87
SWIDTH 1000 0
DWIDTH 34 0
BBX 34 40 0 -8
BITMAP
0000000000
0000000000
0000000000
0000000000
fc0001fc00
fc0001fc00
fc0001fc00
fc0001fc00
fc0001fc00
fc0001fc00
fc0001fc00
fc0001fc00
fc0001fc00
fc0001fc00
fc0001fc00
fc0001fc00
fc1fc1fc00
fc1fc1fc00
fc1fc1fc00
fc1fc1fc00
fc1fc1fc00
fc1fc1fc00
fc1fc1fc00
fc1fc1fc00
fdfdfdfc00
fdfdfdfc00
fdfdfdfc00
fdfdfdfc00
1fc01fc000
1fc01fc000
1fc01fc000
1fc01fc000
0000000000
0000000000
0000000000
0000000000
0000000000
0000000000
0000000000
0000000000
ENDCHAR
STARTCHAR U+0056
ENCODING 86
SWIDTH 1000 0
DWIDTH 34 0
BBX 34 40 0 -8
BITMAP
0000000000
0000000000
0000000000
0000000000
fc0001fc00
fc0001fc00
fc0001fc00
fc0001fc00
fc0001fc00
fc0001fc00
fc0001fc00
fc0001fc00
1fc01fc000
1fc01fc000
1fc01fc000
1fc01fc000
1fc01fc000
1fc01fc000
1fc01fc000
1fc01fc000
01fdfc0000
01fdfc0000
01fdfc0000
01fdfc0000
01fdfc0000
01fdfc0000
01fdfc0000
01fdfc0000
001fc00000
001fc00000
001fc00000
001fc00000
0000000000
0000000000
0000000000
0000000000
0000000000
0000000000
0000000000
0000000000
ENDCHAR
STARTCHAR U+0055
ENCODING 85
SWIDTH 1000 0
DWIDTH 34 0
BBX 34 40 0 -8
BITMAP
0000000000
0000000000
0000000000
0000000000
fc0001fc00
fc0001fc00
fc0001fc00
fc0001fc00
fc0001fc00
fc0001fc00
fc0001fc00
fc0001fc00
fc0001fc00
fc0001fc00
fc0001fc00
fc0001fc00
fc0001fc00
fc0001fc00
fc0001fc00
fc0001fc00
fc0001fc00
fc0001fc00
fc0001fc00
fc0001fc00
fc0001fc00
fc0001fc00
fc0001fc00
fc0001fc00
1fffffc000
1fffffc000
1fffffc000
1fffffc000
0000000000
0000000000
0000000000
0000000000
0000000000
0000000000
0000000000
0000000000
ENDCHAR
STARTCHAR U+0054
ENCODING 84
SWIDTH 1000 0
DWIDTH 34 0
BBX 34 40 0 -8
BITMAP
0000000000
0000000000
0000000000
0000000000
fffffffc00
fffffffc00
fffffffc00
fffffffc00
001fc00000
001fc00000
001fc00000
001fc00000
001fc00000
001fc00000
001fc00000
001fc00000
001fc00000
001fc00000
001fc00000
001fc00000
001fc00000
001fc00000
001fc00000
001fc00000
001fc00000
001fc00000
001fc00000
001fc00000
001fc00000
001fc00000
001fc00000
001fc00000
0000000000
0000000000
0000000000
0000000000
0000000000
0000000000
0000000000
0000000000
ENDCHAR
STARTCHAR U+0053
ENCODING 83
SWIDTH 1000 0
DWIDTH 34 0
BBX 34 40 0 -8
BITMAP
0000000000
0000000000
0000000000
0000000000
1fffffc000
1fffffc000
1fffffc000
1fffffc000
fc0001fc00
fc0001fc00
fc0001fc00
fc0001fc00
fc00000000
fc00000000
fc00000000
fc00000000
1fffffc000
1fffffc000
1fffffc000
1fffffc000
000001fc00
000001fc00
000001fc00
000001fc00
fc0001fc00
fc0001fc00
fc0001fc00
fc0001fc00
1fffffc000
1fffffc000
1fffffc000
1fffffc000
0000000000
0000000000
0000000000
0000000000
0000000000
0000000000
0000000000
0000000000
ENDCHAR
STARTCHAR U+0052
ENCODING 82
SWIDTH 1000 0
DWIDTH 34 0
BBX 34 40 0 -8
BITMAP
0000000000
0000000000
0000000000
0000000000
ffffffc000
ffffffc000
ffffffc000
ffffffc000
fc0001fc00
fc0001fc00
fc0001fc00
fc0001fc00
fc0001fc00
fc0001fc00
fc0001fc00
fc0001fc00
ffffffc000
ffffffc000
ffffffc000
ffffffc000
fc01fc0000
fc01fc0000
fc01fc0000
fc01fc0000
fc001fc000
fc001fc000
fc001fc000
fc001fc000
fc0001fc00
fc0001fc00
fc0001fc00
fc0001fc00
0000000000
0000000000
0000000000
0000000000
0000000000
0000000000
0000000000
0000000000
ENDCHAR
STARTCHAR U+0051
ENCODING 81
SWIDTH 1000 0
DWIDTH 34 0
BBX 34 40 0 -8
BITMAP
0000000000
0000000000
0000000000
0000000000
1fffffc000
1fffffc000
1fffffc000
1fffffc000
fc0001fc00
fc0001fc00
fc0001fc00
fc0001fc00
fc0001fc00
fc0001fc00
fc0001fc00
fc0001fc00
fc0001fc00
fc0001fc00
fc0001fc00
fc0001fc00
fc01fdfc00
fc01fdfc00
fc01fdfc00
fc01fdfc00
fc001fc000
fc001fc000
fc001fc000
fc001fc000
1ffffdfc00
1ffffdfc00
1ffffdfc00
1ffffdfc00
0000000000
0000000000
0000000000
0000000000
0000000000
0000000000
0000000000
0000000000
ENDCHAR
STARTCHAR U+0050
ENCODING 80
SWIDTH 1000 0
DWIDTH 34 0
BBX 34 40 0 -8
BITMAP
0000000000
0000000000
0000000000
0000000000
ffffffc000
ffffffc000
ffffffc000
ffffffc000
fc0001fc00
fc0001fc00
fc0001fc00
fc0001fc00
fc0001fc00
fc0001fc00
fc0001fc00
fc0001fc00
ffffffc000
ffffffc000
ffffffc000
ffffffc000
fc00000000
fc00000000
fc00000000
fc00000000
fc00000000
fc00000000
fc00000000
fc00000000
fc00000000
fc00000000
fc00000000
fc00000000
0000000000
0000000000
0000000000
0000000000
0000000000
0000000000
0000000000
0000000000
ENDCHAR
STARTCHAR U+004F
ENCODING 79
SWIDTH 1000 0
DWIDTH 34 0
BBX 34 40 0 -8
BITMAP
0000000000
0000000000
0000000000
0000000000
1fffffc000
1fffffc000
1fffffc000
1fffffc000
fc0001fc00
fc0001fc00
fc0001fc00
fc0001fc00
fc0001fc00
fc0001fc00
fc0001fc00
fc0001fc00
fc0001fc00
fc0001fc00
fc0001fc00
fc0001fc00
fc0001fc00
fc0001fc00
fc0001fc00
fc0001fc00
fc0001fc00
fc0001fc00
fc0001fc00
fc0001fc00
1fffffc000
1fffffc000
1fffffc000
1fffffc000
0000000000
0000000000
0000000000
0000000000
0000000000
0000000000
0000000000
0000000000
ENDCHAR
STARTCHAR U+004E
ENCODING 78
SWIDTH 1000 0
DWIDTH 34 0
BBX 34 40 0 -8
BITMAP
0000000000
0000000000
0000000000
0000000000
fc0001fc00
fc0001fc00
fc0001fc00
fc0001fc00
ffc001fc00
ffc001fc00
ffc001fc00
ffc001fc00
fdfc01fc00
fdfc01fc00
fdfc01fc00
fdfc01fc00
fc1fc1fc00
fc1fc1fc00
fc1fc1fc00
fc1fc1fc00
fc01fdfc00
fc01fdfc00
fc01fdfc00
fc01fdfc00
fc001ffc00
fc001ffc00
fc001ffc00
fc001ffc00
fc0001fc00
fc0001fc00
fc0001fc00
fc0001fc00
0000000000
0000000000
0000000000
0000000000
0000000000
0000000000
0000000000
0000000000
ENDCHAR
STARTCHAR U+004D
ENCODING 77
SWIDTH 1000 0
DWIDTH 34 0
BBX 34 40 0 -8
BITMAP
0000000000
0000000000
0000000000
0000000000
fc0001fc00
fc0001fc00
fc0001fc00
fc0001fc00
ffc01ffc00
ffc01ffc00
ffc01ffc00
ffc01ffc00
fdfdfdfc00
fdfdfdfc00
fdfdfdfc00
fdfdfdfc00
fc1fc1fc00
fc1fc1fc00
fc1fc1fc00
fc1fc1fc00
fc0001fc00
fc0001fc00
fc0001fc00
fc0001fc00
fc0001fc00
fc0001fc00
fc0001fc00
fc0001fc00
fc0001fc00
fc0001fc00
fc0001fc00
fc0001fc00
0000000000
0000000000
0000000000
0000000000
0000000000
0000000000
0000000000
0000000000
ENDCHAR
STARTCHAR U+004C
ENCODING 76
SWIDTH 1000 0
DWIDTH 34 0
BBX 34 40 0 -8
BITMAP
0000000000
0000000000
0000000000
0000000000
fc00000000
fc00000000
fc00000000
fc00000000
fc00000000
fc00000000
fc00000000
fc00000000
fc00000000
fc00000000
fc00000000
fc00000000
fc00000000
fc00000000
fc00000000
fc00000000
fc00000000
fc00000000
fc00000000
fc00000000
fc00000000
fc00000000
fc00000000
fc00000000
fffffffc00
fffffffc00
fffffffc00
fffffffc00
0000000000
0000000000
0000000000
0000000000
0000000000
0000000000
0000000000
0000000000
ENDCHAR
STARTCHAR U+004B
ENCODING 75
SWIDTH 1000 0
DWIDTH 34 0
BBX 34 40 0 -8
BITMAP
0000000000
0000000000
0000000000
0000000000
fc0001fc00
fc0001fc00
fc0001fc00
fc0001fc00
fc01ffc000
fc01ffc000
fc01ffc000
fc01ffc000
fdffc00000
fdffc00000
fdffc00000
fdffc00000
ffc0000000
ffc0000000
ffc0000000
ffc0000000
fdffc00000
fdffc00000
fdffc00000
fdffc00000
fc01ffc000
fc01ffc000
fc01ffc000
fc01ffc000
fc0001fc00
fc0001fc00
fc0001fc00
fc0001fc00
0000000000
0000000000
0000000000
0000000000
0000000000
0000000000
0000000000
0000000000
ENDCHAR
STARTCHAR U+004A
ENCODING 74
SWIDTH 1000 0
DWIDTH 34 0
BBX 34 40 0 -8
BITMAP
0000000000
0000000000
0000000000
0000000000
0001fffc00
0001fffc00
0001fffc00
0001fffc00
00001fc000
00001fc000
00001fc000
00001fc000
00001fc000
00001fc000
00001fc000
00001fc000
00001fc000
00001fc000
00001fc000
00001fc000
00001fc000
00001fc000
00001fc000
00001fc000
fc001fc000
fc001fc000
fc001fc000
fc001fc000
1ffffc0000
1ffffc0000
1ffffc0000
1ffffc0000
0000000000
0000000000
0000000000
0000000000
0000000000
0000000000
0000000000
0000000000
ENDCHAR
STARTCHAR U+0049
ENCODING 73
SWIDTH 1000 0
DWIDTH 34 0
BBX 34 40 0 -8
BITMAP
0000000000
0000000000
0000000000
0000000000
1fffffc000
1fffffc000
1fffffc000
1fffffc000
001fc00000
001fc00000
001fc00000
001fc00000
001fc00000
001fc00000
001fc00000
001fc00000
001fc00000
001fc00000
001fc00000
001fc00000
001fc00000
001fc00000
001fc00000
001fc00000
001fc00000
001fc00000
001fc00000
001fc00000
1fffffc000
1fffffc000
1fffffc000
1fffffc000
0000000000
0000000000
0000000000
0000000000
0000000000
0000000000
0000000000
0000000000
ENDCHAR
STARTCHAR U+0048
ENCODING 72
SWIDTH 1000 0
DWIDTH 34 0
BBX 34 40 0 -8
BITMAP
0000000000
0000000000
0000000000
0000000000
fc0001fc00
fc0001fc00
fc0001fc00
fc0001fc00
fc0001fc00
fc0001fc00
fc0001fc00
fc0001fc00
fc0001fc00
fc0001fc00
fc0001fc00
fc0001fc00
fffffffc00
fffffffc00
fffffffc00
fffffffc00
fc0001fc00
fc0001fc00
fc0001fc00
fc0001fc00
fc0001fc00
fc0001fc00
fc0001fc00
fc0001fc00
fc0001fc00
fc0001fc00
fc0001fc00
fc0001fc00
0000000000
0000000000
0000000000
0000000000
0000000000
0000000000
0000000000
0000000000
ENDCHAR
STARTCHAR U+0047
ENCODING 71
SWIDTH 1000 0
DWIDTH 34 0
BBX 34 40 0 -8
BITMAP
0000000000
0000000000
0000000000
0000000000
01ffffc000
01ffffc000
01ffffc000
01ffffc000
1fc001fc00
1fc001fc00
1fc001fc00
1fc001fc00
fc00000000
fc00000000
fc00000000
fc00000000
fc00000000
fc00000000
fc00000000
fc00000000
fc01fffc00
fc01fffc00
fc01fffc00
fc01fffc00
1fc001fc00
1fc001fc00
1fc001fc00
1fc001fc00
01ffffc000
01ffffc000
01ffffc000
01ffffc000
0000000000
0000000000
0000000000
0000000000
0000000000
0000000000
0000000000
0000000000
ENDCHAR
STARTCHAR U+0046
ENCODING 70
SWIDTH 1000 0
DWIDTH 34 0
BBX 34 40 0 -8
BITMAP
0000000000
0000000000
0000000000
0000000000
fffffffc00
fffffffc00
fffffffc00
fffffffc00
fc00000000
fc00000000
fc00000000
fc00000000
fc00000000
fc00000000
fc00000000
fc00000000
fffffc0000
fffffc0000
fffffc0000
fffffc0000
fc00000000
fc00000000
fc00000000
fc00000000
fc00000000
fc00000000
fc00000000
fc00000000
fc00000000
fc00000000
fc00000000
fc00000000
0000000000
0000000000
0000000000
0000000000
0000000000
0000000000
0000000000
0000000000
ENDCHAR
STARTCHAR U+0045
ENCODING 69
SWIDTH 1000 0
DWIDTH 34 0
BBX 34 40 0 -8
BITMAP
0000000000
0000000000
0000000000
0000000000
fffffffc00
fffffffc00
fffffffc00
fffffffc00
fc00000000
fc00000000
fc00000000
fc00000000
fc00000000
fc00000000
fc00000000
fc00000000
fffffc0000
fffffc0000
fffffc0000
fffffc0000
fc00000000
fc00000000
fc00000000
fc00000000
fc00000000
fc00000000
fc00000000
fc00000000
fffffffc00
fffffffc00
fffffffc00
fffffffc00
0000000000
0000000000
0000000000
0000000000
0000000000
0000000000
0000000000
0000000000
ENDCHAR
STARTCHAR U+0044
ENCODING 68
SWIDTH 1000 0
DWIDTH 34 0
BBX 34 40 0 -8
BITMAP
0000000000
0000000000
0000000000
0000000000
fffffc0000
fffffc0000
fffffc0000
fffffc0000
1fc01fc000
1fc01fc000
1fc01fc000
1fc01fc000
1fc001fc00
1fc001fc00
1fc001fc00
1fc001fc00
1fc001fc00
1fc001fc00
1fc001fc00
1fc001fc00
1fc001fc00
1fc001fc00
1fc001fc00
1fc001fc00
1fc01fc000
1fc01fc000
1fc01fc000
1fc01fc000
fffffc0000
fffffc0000
fffffc0000
fffffc0000
0000000000
0000000000
0000000000
0000000000
0000000000
0000000000
0000000000
0000000000
ENDCHAR
STARTCHAR U+0043
ENCODING 67
SWIDTH 1000 0
DWIDTH 34 0
BBX 34 40 0 -8
BITMAP
0000000000
0000000000
0000000000
0000000000
01ffffc000
01ffffc000
01ffffc000
01ffffc000
1fc001fc00
1fc001fc00
1fc001fc00
1fc001fc00
fc00000000
fc00000000
fc00000000
fc00000000
fc00000000
fc00000000
fc00000000
fc00000000
fc00000000
fc00000000
fc00000000
fc00000000
1fc001fc00
1fc001fc00
1fc001fc00
1fc001fc00
01ffffc000
01ffffc000
01ffffc000
01ffffc000
0000000000
0000000000
0000000000
0000000000
0000000000
0000000000
0000000000
0000000000
ENDCHAR
STARTCHAR U+0042
ENCODING 66
SWIDTH 1000 0
DWIDTH 34 0
BBX 34 40 0 -8
BITMAP
0000000000
0000000000
0000000000
0000000000
ffffffc000
ffffffc000
ffffffc000
ffffffc000
1fc001fc00
1fc001fc00
1fc001fc00
1fc001fc00
1fc001fc00
1fc001fc00
1fc001fc00
1fc001fc00
1fffffc000
1fffffc000
1fffffc000
1fffffc000
1fc001fc00
1fc001fc00
1fc001fc00
1fc001fc00
1fc001fc00
1fc001fc00
1fc001fc00
1fc001fc00
ffffffc000
ffffffc000
ffffffc000
ffffffc000
0000000000
0000000000
0000000000
0000000000
0000000000
0000000000
0000000000
0000000000
ENDCHAR
STARTCHAR U+0041
ENCODING 65
SWIDTH 1000 0
DWIDTH 34 0
BBX 34 40 0 -8
BITMAP
0000000000
0000000000
0000000000
0000000000
001fc00000
001fc00000
001fc00000
001fc00000
01fdfc0000
01fdfc0000
01fdfc0000
01fdfc0000
1fc01fc000
1fc01fc000
1fc01fc000
1fc01fc000
fc0001fc00
fc0001fc00
fc0001fc00
fc0001fc00
fffffffc00
fffffffc00
fffffffc00
fffffffc00
fc0001fc00
fc0001fc00
fc0001fc00
fc0001fc00
fc0001fc00
fc0001fc00
fc0001fc00
fc0001fc00
0000000000
0000000000
0000000000
0000000000
0000000000
0000000000
0000000000
0000000000
ENDCHAR
STARTCHAR U+0040
ENCODING 64
SWIDTH 1000 0
DWIDTH 34 0
BBX 34 40 0 -8
BITMAP
0000000000
0000000000
0000000000
0000000000
1fffffc000
1fffffc000
1fffffc000
1fffffc000
fc0001fc00
fc0001fc00
fc0001fc00
fc0001fc00
fc1ffffc00
fc1ffffc00
fc1ffffc00
fc1ffffc00
fdfc1ffc00
fdfc1ffc00
fdfc1ffc00
fdfc1ffc00
fc1ffdfc00
fc1ffdfc00
fc1ffdfc00
fc1ffdfc00
fc00000000
fc00000000
fc00000000
fc00000000
1fffffc000
1fffffc000
1fffffc000
1fffffc000
0000000000
0000000000
0000000000
0000000000
0000000000
0000000000
0000000000
0000000000
ENDCHAR
STARTCHAR U+003F
ENCODING 63
SWIDTH 1000 0
DWIDTH 34 0
BBX 34 40 0 -8
BITMAP
0000000000
0000000000
0000000000
0000000000
1fffffc000
1fffffc000
1fffffc000
1fffffc000
fc0001fc00
fc0001fc00
fc0001fc00
fc0001fc00
0001ffc000
0001ffc000
0001ffc000
0001ffc000
001fc00000
001fc00000
001fc00000
001fc00000
001fc00000
001fc00000
001fc00000
001fc00000
0000000000
0000000000
0000000000
0000000000
001fc00000
001fc00000
001fc00000
001fc00000
0000000000
0000000000
0000000000
0000000000
0000000000
0000000000
0000000000
0000000000
ENDCHAR
STARTCHAR U+003E
ENCODING 62
SWIDTH 1000 0
DWIDTH 34 0
BBX 34 40 0 -8
BITMAP
0000000000
0000000000
0000000000
0000000000
fc00000000
fc00000000
fc00000000
fc00000000
01fc000000
01fc000000
01fc000000
01fc000000
0001fc0000
0001fc0000
0001fc0000
0001fc0000
000001fc00
000001fc00
000001fc00
000001fc00
0001fc0000
0001fc0000
0001fc0000
0001fc0000
01fc000000
01fc000000
01fc000000
01fc000000
fc00000000
fc00000000
fc00000000
fc00000000
0000000000
0000000000
0000000000
0000000000
0000000000
0000000000
0000000000
0000000000
ENDCHAR
STARTCHAR U+003D
ENCODING 61
SWIDTH 1000 0
DWIDTH 34 0
BBX 34 40 0 -8
BITMAP
0000000000
0000000000
0000000000
0000000000
0000000000
0000000000
0000000000
0000000000
0000000000
0000000000
0000000000
0000000000
fffffffc00
fffffffc00
fffffffc00
fffffffc00
0000000000
0000000000
0000000000
0000000000
fffffffc00
fffffffc00
fffffffc00
fffffffc00
0000000000
0000000000
0000000000
0000000000
0000000000
0000000000
0000000000
0000000000
0000000000
0000000000
0000000000
0000000000
0000000000
0000000000
0000000000
0000000000
ENDCHAR
STARTCHAR U+003C
ENCODING 60
SWIDTH 1000 0
DWIDTH 34 0
BBX 34 40 0 -8
BITMAP
0000000000
0000000000
0000000000
0000000000
000001fc00
000001fc00
000001fc00
000001fc00
0001fc0000
0001fc0000
0001fc0000
0001fc0000
01fc000000
01fc000000
01fc000000
01fc000000
fc00000000
fc00000000
fc00000000
fc00000000
01fc000000
01fc000000
01fc000000
01fc000000
0001fc0000
0001fc0000
0001fc0000
0001fc0000
000001fc00
000001fc00
000001fc00
000001fc00
0000000000
0000000000
0000000000
0000000000
0000000000
0000000000
0000000000
0000000000
ENDCHAR
STARTCHAR U+003B
ENCODING 59
SWIDTH 1000 0
DWIDTH 34 0
BBX 34 40 0 -8
BITMAP
0000000000
0000000000
0000000000
0000000000
0000000000
0000000000
0000000000
0000000000
01ffc00000
01ffc00000
01ffc00000
01ffc00000
01ffc00000
01ffc00000
01ffc00000
01ffc00000
0000000000
0000000000
0000000000
0000000000
0000000000
0000000000
0000000000
0000000000
01ffc00000
01ffc00000
01ffc00000
01ffc00000
01fc000000
01fc000000
01fc000000
01fc000000
1fc0000000
1fc0000000
1fc0000000
1fc0000000
0000000000
0000000000
0000000000
0000000000
ENDCHAR
STARTCHAR U+003A
ENCODING 58
SWIDTH 1000 0
DWIDTH 34 0
BBX 34 40 0 -8
BITMAP
0000000000
0000000000
0000000000
0000000000
0000000000
0000000000
0000000000
0000000000
01ffc00000
01ffc00000
01ffc00000
01ffc00000
01ffc00000
01ffc00000
01ffc00000
01ffc00000
0000000000
0000000000
0000000000
0000000000
0000000000
0000000000
0000000000
0000000000
01ffc00000
01ffc00000
01ffc00000
01ffc00000
01ffc00000
01ffc00000
01ffc00000
01ffc00000
0000000000
0000000000
0000000000
0000000000
0000000000
0000000000
0000000000
0000000000
ENDCHAR
STARTCHAR U+0039
ENCODING 57
SWIDTH 1000 0
DWIDTH 34 0
BBX 34 40 0 -8
BITMAP
0000000000
0000000000
0000000000
0000000000
1fffffc000
1fffffc000
1fffffc000
1fffffc000
fc0001fc00
fc0001fc00
fc0001fc00
fc0001fc00
fc001ffc00
fc001ffc00
fc001ffc00
fc001ffc00
1ffffdfc00
1ffffdfc00
1ffffdfc00
1ffffdfc00
000001fc00
000001fc00
000001fc00
000001fc00
00001fc000
00001fc000
00001fc000
00001fc000
1ffffc0000
1ffffc0000
1ffffc0000
1ffffc0000
0000000000
0000000000
0000000000
0000000000
0000000000
0000000000
0000000000
0000000000
ENDCHAR
STARTCHAR U+0038
ENCODING 56
SWIDTH 1000 0
DWIDTH 34 0
BBX 34 40 0 -8
BITMAP
0000000000
0000000000
0000000000
0000000000
1fffffc000
1fffffc000
1fffffc000
1fffffc000
fc0001fc00
fc0001fc00
fc0001fc00
fc0001fc00
fc0001fc00
fc0001fc00
fc0001fc00
fc0001fc00
1fffffc000
1fffffc000
1fffffc000
1fffffc000
fc0001fc00
fc0001fc00
fc0001fc00
fc0001fc00
fc0001fc00
fc0001fc00
fc0001fc00
fc0001fc00
1fffffc000
1fffffc000
1fffffc000
1fffffc000
0000000000
0000000000
0000000000
0000000000
0000000000
0000000000
0000000000
0000000000
ENDCHAR
STARTCHAR U+0037
ENCODING 55
SWIDTH 1000 0
DWIDTH 34 0
BBX 34 40 0 -8
BITMAP
0000000000
0000000000
0000000000
0000000000
fffffffc00
fffffffc00
fffffffc00
fffffffc00
000001fc00
000001fc00
000001fc00
000001fc00
00001fc000
00001fc000
00001fc000
00001fc000
0001fc0000
0001fc0000
0001fc0000
0001fc0000
001fc00000
001fc00000
001fc00000
001fc00000
01fc000000
01fc000000
01fc000000
01fc000000
01fc000000
01fc000000
01fc000000
01fc000000
0000000000
0000000000
0000000000
0000000000
0000000000
0000000000
0000000000
0000000000
ENDCHAR
STARTCHAR U+0036
ENCODING 54
SWIDTH 1000 0
DWIDTH 34 0
BBX 34 40 0 -8
BITMAP
0000000000
0000000000
0000000000
0000000000
01ffffc000
01ffffc000
01ffffc000
01ffffc000
1fc0000000
1fc0000000
1fc0000000
1fc0000000
fc00000000
fc00000000
fc00000000
fc00000000
fdffffc000
fdffffc000
fdffffc000
fdffffc000
ffc001fc00
ffc001fc00
ffc001fc00
ffc001fc00
fc0001fc00
fc0001fc00
fc0001fc00
fc0001fc00
1fffffc000
1fffffc000
1fffffc000
1fffffc000
0000000000
0000000000
0000000000
0000000000
0000000000
0000000000
0000000000
0000000000
ENDCHAR
STARTCHAR U+0035
ENCODING 53
SWIDTH 1000 0
DWIDTH 34 0
BBX 34 40 0 -8
BITMAP
0000000000
0000000000
0000000000
0000000000
fffffffc00
fffffffc00
fffffffc00
fffffffc00
fc00000000
fc00000000
fc00000000
fc00000000
fdffffc000
fdffffc000
fdffffc000
fdffffc000
ffc001fc00
ffc001fc00
ffc001fc00
ffc001fc00
000001fc00
000001fc00
000001fc00
000001fc00
fc0001fc00
fc0001fc00
fc0001fc00
fc0001fc00
1fffffc000
1fffffc000
1fffffc000
1fffffc000
0000000000
0000000000
0000000000
0000000000
0000000000
0000000000
0000000000
0000000000
ENDCHAR
STARTCHAR U+0034
ENCODING 52
SWIDTH 1000 0
DWIDTH 34 0
BBX 34 40 0 -8
BITMAP
0000000000
0000000000
0000000000
0000000000
0001fc0000
0001fc0000
0001fc0000
0001fc0000
001ffc0000
001ffc0000
001ffc0000
001ffc0000
01fdfc0000
01fdfc0000
01fdfc0000
01fdfc0000
1fc1fc0000
1fc1fc0000
1fc1fc0000
1fc1fc0000
fffffffc00
fffffffc00
fffffffc00
fffffffc00
0001fc0000
0001fc0000
0001fc0000
0001fc0000
0001fc0000
0001fc0000
0001fc0000
0001fc0000
0000000000
0000000000
0000000000
0000000000
0000000000
0000000000
0000000000
0000000000
ENDCHAR
STARTCHAR U+0033
ENCODING 51
SWIDTH 1000 0
DWIDTH 34 0
BBX 34 40 0 -8
BITMAP
0000000000
0000000000
0000000000
0000000000
fffffffc00
fffffffc00
fffffffc00
fffffffc00
00001fc000
00001fc000
00001fc000
00001fc000
0001fc0000
0001fc0000
0001fc0000
0001fc0000
001fffc000
001fffc000
001fffc000
001fffc000
000001fc00
000001fc00
000001fc00
000001fc00
fc0001fc00
fc0001fc00
fc0001fc00
fc0001fc00
1fffffc000
1fffffc000
1fffffc000
1fffffc000
0000000000
0000000000
0000000000
0000000000
0000000000
0000000000
0000000000
0000000000
ENDCHAR
STARTCHAR U+0032
ENCODING 50
SWIDTH 1000 0
DWIDTH 34 0
BBX 34 40 0 -8
BITMAP
0000000000
0000000000
0000000000
0000000000
1fffffc000
1fffffc000
1fffffc000
1fffffc000
fc0001fc00
fc0001fc00
fc0001fc00
fc0001fc00
000001fc00
000001fc00
000001fc00
000001fc00
001fffc000
001fffc000
001fffc000
001fffc000
1ffc000000
1ffc000000
1ffc000000
1ffc000000
fc00000000
fc00000000
fc00000000
fc00000000
fffffffc00
fffffffc00
fffffffc00
fffffffc00
0000000000
0000000000
0000000000
0000000000
0000000000
0000000000
0000000000
0000000000
ENDCHAR
STARTCHAR U+0031
ENCODING 49
SWIDTH 1000 0
DWIDTH 34 0
BBX 34 40 0 -8
BITMAP
0000000000
0000000000
0000000000
0000000000
001fc00000
001fc00000
001fc00000
001fc00000
01ffc00000
01ffc00000
01ffc00000
01ffc00000
1fdfc00000
1fdfc00000
1fdfc00000
1fdfc00000
001fc00000
001fc00000
001fc00000
001fc00000
001fc00000
001fc00000
001fc00000
001fc00000
001fc00000
001fc00000
001fc00000
001fc00000
1fffffc000
1fffffc000
1fffffc000
1fffffc000
0000000000
0000000000
0000000000
0000000000
0000000000
0000000000
0000000000
0000000000
ENDCHAR
STARTCHAR U+0030
ENCODING 48
SWIDTH 1000 0
DWIDTH 34 0
BBX 34 40 0 -8
BITMAP
0000000000
0000000000
0000000000
0000000000
01fffc0000
01fffc0000
01fffc0000
01fffc0000
1fc01fc000
1fc01fc000
1fc01fc000
1fc01fc000
fc0001fc00
fc0001fc00
fc0001fc00
fc0001fc00
fc0001fc00
fc0001fc00
fc0001fc00
fc0001fc00
fc0001fc00
fc0001fc00
fc0001fc00
fc0001fc00
1fc01fc000
1fc01fc000
1fc01fc000
1fc01fc000
01fffc0000
01fffc0000
01fffc0000
01fffc0000
0000000000
0000000000
0000000000
0000000000
0000000000
0000000000
0000000000
0000000000
ENDCHAR
STARTCHAR U+002F
ENCODING 47
SWIDTH 1000 0
DWIDTH 34 0
BBX 34 40 0 -8
BITMAP
0000000000
0000000000
0000000000
0000000000
000001fc00
000001fc00
000001fc00
000001fc00
00001fc000
00001fc000
00001fc000
00001fc000
0001fc0000
0001fc0000
0001fc0000
0001fc0000
001fc00000
001fc00000
001fc00000
001fc00000
01fc000000
01fc000000
01fc000000
01fc000000
1fc0000000
1fc0000000
1fc0000000
1fc0000000
fc00000000
fc00000000
fc00000000
fc00000000
0000000000
0000000000
0000000000
0000000000
0000000000
0000000000
0000000000
0000000000
ENDCHAR
STARTCHAR U+002E
ENCODING 46
SWIDTH 1000 0
DWIDTH 34 0
BBX 34 40 0 -8
BITMAP
0000000000
0000000000
0000000000
0000000000
0000000000
0000000000
0000000000
0000000000
0000000000
0000000000
0000000000
0000000000
0000000000
0000000000
0000000000
0000000000
0000000000
0000000000
0000000000
0000000000
0000000000
0000000000
0000000000
0000000000
01ffc00000
01ffc00000
01ffc00000
01ffc00000
01ffc00000
01ffc00000
01ffc00000
01ffc00000
0000000000
0000000000
0000000000
0000000000
0000000000
0000000000
0000000000
0000000000
ENDCHAR
STARTCHAR U+002D
ENCODING 45
SWIDTH 1000 0
DWIDTH 34 0
BBX 34 40 0 -8
BITMAP
0000000000
0000000000
0000000000
0000000000
0000000000
0000000000
0000000000
0000000000
0000000000
0000000000
0000000000
0000000000
0000000000
0000000000
0000000000
0000000000
fffffffc00
fffffffc00
fffffffc00
fffffffc00
0000000000
0000000000
0000000000
0000000000
0000000000
0000000000
0000000000
0000000000
0000000000
0000000000
0000000000
0000000000
0000000000
0000000000
0000000000
0000000000
0000000000
0000000000
0000000000
0000000000
ENDCHAR
STARTCHAR U+002C
ENCODING 44
SWIDTH 1000 0
DWIDTH 34 0
BBX 34 40 0 -8
BITMAP
0000000000
0000000000
0000000000
0000000000
0000000000
0000000000
0000000000
0000000000
0000000000
0000000000
0000000000
0000000000
0000000000
0000000000
0000000000
0000000000
0000000000
0000000000
0000000000
0000000000
0000000000
0000000000
0000000000
0000000000
01ffc00000
01ffc00000
01ffc00000
01ffc00000
01fc000000
01fc000000
01fc000000
01fc000000
1fc0000000
1fc0000000
1fc0000000
1fc0000000
0000000000
0000000000
0000000000
0000000000
ENDCHAR
STARTCHAR U+002B
ENCODING 43
SWIDTH 1000 0
DWIDTH 34 0
BBX 34 40 0 -8
BITMAP
0000000000
0000000000
0000000000
0000000000
0000000000
0000000000
0000000000
0000000000
001fc00000
001fc00000
001fc00000
001fc00000
001fc00000
001fc00000
001fc00000
001fc00000
fffffffc00
fffffffc00
fffffffc00
fffffffc00
001fc00000
001fc00000
001fc00000
001fc00000
001fc00000
001fc00000
001fc00000
001fc00000
0000000000
0000000000
0000000000
0000000000
0000000000
0000000000
0000000000
0000000000
0000000000
0000000000
0000000000
0000000000
ENDCHAR
STARTCHAR U+002A
ENCODING 42
SWIDTH 1000 0
DWIDTH 34 0
BBX 34 40 0 -8
BITMAP
0000000000
0000000000
0000000000
0000000000
0000000000
0000000000
0000000000
0000000000
1fc01fc000
1fc01fc000
1fc01fc000
1fc01fc000
01fdfc0000
01fdfc0000
01fdfc0000
01fdfc0000
fffffffc00
fffffffc00
fffffffc00
fffffffc00
01fdfc0000
01fdfc0000
01fdfc0000
01fdfc0000
1fc01fc000
1fc01fc000
1fc01fc000
1fc01fc000
0000000000
0000000000
0000000000
0000000000
0000000000
0000000000
0000000000
0000000000
0000000000
0000000000
0000000000
0000000000
ENDCHAR
STARTCHAR U+0029
ENCODING 41
SWIDTH 1000 0
DWIDTH 34 0
BBX 34 40 0 -8
BITMAP
0000000000
0000000000
0000000000
0000000000
01fc000000
01fc000000
01fc000000
01fc000000
001fc00000
001fc00000
001fc00000
001fc00000
0001fc0000
0001fc0000
0001fc0000
0001fc0000
0001fc0000
0001fc0000
0001fc0000
0001fc0000
0001fc0000
0001fc0000
0001fc0000
0001fc0000
001fc00000
001fc00000
001fc00000
001fc00000
01fc000000
01fc000000
01fc000000
01fc000000
0000000000
0000000000
0000000000
0000000000
0000000000
0000000000
0000000000
0000000000
ENDCHAR
STARTCHAR U+0028
ENCODING 40
SWIDTH 1000 0
DWIDTH 34 0
BBX 34 40 0 -8
BITMAP
0000000000
0000000000
0000000000
0000000000
0001fc0000
0001fc0000
0001fc0000
0001fc0000
001fc00000
001fc00000
001fc00000
001fc00000
01fc000000
01fc000000
01fc000000
01fc000000
01fc000000
01fc000000
01fc000000
01fc000000
01fc000000
01fc000000
01fc000000
01fc000000
001fc00000
001fc00000
001fc00000
001fc00000
0001fc0000
0001fc0000
0001fc0000
0001fc0000
0000000000
0000000000
0000000000
0000000000
0000000000
0000000000
0000000000
0000000000
ENDCHAR
STARTCHAR U+0027
ENCODING 39
SWIDTH 1000 0
DWIDTH 34 0
BBX 34 40 0 -8
BITMAP
0000000000
0000000000
0000000000
0000000000
001ffc0000
001ffc0000
001ffc0000
001ffc0000
001fc00000
001fc00000
001fc00000
001fc00000
01fc000000
01fc000000
01fc000000
01fc000000
0000000000
0000000000
0000000000
0000000000
0000000000
0000000000
0000000000
0000000000
0000000000
0000000000
0000000000
0000000000
0000000000
0000000000
0000000000
0000000000
0000000000
0000000000
0000000000
0000000000
0000000000
0000000000
0000000000
0000000000
ENDCHAR
STARTCHAR U+0026
ENCODING 38
SWIDTH 1000 0
DWIDTH 34 0
BBX 34 40 0 -8
BITMAP
0000000000
0000000000
0000000000
0000000000
1fffc00000
1fffc00000
1fffc00000
1fffc00000
fc01fc0000
fc01fc0000
fc01fc0000
fc01fc0000
fc01fc0000
fc01fc0000
fc01fc0000
fc01fc0000
1fffc00000
1fffc00000
1fffc00000
1fffc00000
fc01fdfc00
fc01fdfc00
fc01fdfc00
fc01fdfc00
fc001fc000
fc001fc000
fc001fc000
fc001fc000
1ffffdfc00
1ffffdfc00
1ffffdfc00
1ffffdfc00
0000000000
0000000000
0000000000
0000000000
0000000000
0000000000
0000000000
0000000000
ENDCHAR
STARTCHAR U+0025
ENCODING 37
SWIDTH 1000 0
DWIDTH 34 0
BBX 34 40 0 -8
BITMAP
0000000000
0000000000
0000000000
0000000000
1fc001fc00
1fc001fc00
1fc001fc00
1fc001fc00
fdfc1fc000
fdfc1fc000
fdfc1fc000
fdfc1fc000
1fc1fc0000
1fc1fc0000
1fc1fc0000
1fc1fc0000
001fc00000
001fc00000
001fc00000
001fc00000
01fc1fc000
01fc1fc000
01fc1fc000
01fc1fc000
1fc1fdfc00
1fc1fdfc00
1fc1fdfc00
1fc1fdfc00
fc001fc000
fc001fc000
fc001fc000
fc001fc000
0000000000
0000000000
0000000000
0000000000
0000000000
0000000000
0000000000
0000000000
ENDCHAR
STARTCHAR U+0024
ENCODING 36
SWIDTH 1000 0
DWIDTH 34 0
BBX 34 40 0 -8
BITMAP
0000000000
0000000000
0000000000
0000000000
001fc00000
001fc00000
001fc00000
001fc00000
1fffffc000
1fffffc000
1fffffc000
1fffffc000
fc1fc00000
fc1fc00000
fc1fc00000
fc1fc00000
1fffffc000
1fffffc000
1fffffc000
1fffffc000
001fc1fc00
001fc1fc00
001fc1fc00
001fc1fc00
1fffffc000
1fffffc000
1fffffc000
1fffffc000
001fc00000
001fc00000
001fc00000
001fc00000
0000000000
0000000000
0000000000
0000000000
0000000000
0000000000
0000000000
0000000000
ENDCHAR
STARTCHAR U+0023
ENCODING 35
SWIDTH 1000 0
DWIDTH 34 0
BBX 34 40 0 -8
BITMAP
0000000000
0000000000
0000000000
0000000000
1fc1fc0000
1fc1fc0000
1fc1fc0000
1fc1fc0000
1fc1fc0000
1fc1fc0000
1fc1fc0000
1fc1fc0000
ffffffc000
ffffffc000
ffffffc000
ffffffc000
1fc1fc0000
1fc1fc0000
1fc1fc0000
1fc1fc0000
ffffffc000
ffffffc000
ffffffc000
ffffffc000
1fc1fc0000
1fc1fc0000
1fc1fc0000
1fc1fc0000
1fc1fc0000
1fc1fc0000
1fc1fc0000
1fc1fc0000
0000000000
0000000000
0000000000
0000000000
0000000000
0000000000
0000000000
0000000000
ENDCHAR
STARTCHAR U+0022
ENCODING 34
SWIDTH 1000 0
DWIDTH 34 0
BBX 34 40 0 -8
BITMAP
0000000000
0000000000
0000000000
0000000000
1fc1fc0000
1fc1fc0000
1fc1fc0000
1fc1fc0000
1fc1fc0000
1fc1fc0000
1fc1fc0000
1fc1fc0000
1fc1fc0000
1fc1fc0000
1fc1fc0000
1fc1fc0000
0000000000
0000000000
0000000000
0000000000
0000000000
0000000000
0000000000
0000000000
0000000000
0000000000
0000000000
0000000000
0000000000
0000000000
0000000000
0000000000
0000000000
0000000000
0000000000
0000000000
0000000000
0000000000
0000000000
0000000000
ENDCHAR
STARTCHAR U+0021
ENCODING 33
SWIDTH 1000 0
DWIDTH 34 0
BBX 34 40 0 -8
BITMAP
0000000000
0000000000
0000000000
0000000000
001fc00000
001fc00000
001fc00000
001fc00000
001fc00000
001fc00000
001fc00000
001fc00000
001fc00000
001fc00000
001fc00000
001fc00000
001fc00000
001fc00000
001fc00000
001fc00000
001fc00000
001fc00000
001fc00000
001fc00000
0000000000
0000000000
0000000000
0000000000
001fc00000
001fc00000
001fc00000
001fc00000
0000000000
0000000000
0000000000
0000000000
0000000000
0000000000
0000000000
0000000000
ENDCHAR
STARTCHAR U+2E2E
ENCODING 11822
SWIDTH 1000 0
DWIDTH 34 0
BBX 34 40 0 -8
BITMAP
0000000000
0000000000
0000000000
0000000000
1fffffc000
1fffffc000
1fffffc000
1fffffc000
fc0001fc00
fc0001fc00
fc0001fc00
fc0001fc00
1ffc000000
1ffc000000
1ffc000000
1ffc000000
001fc00000
001fc00000
001fc00000
001fc00000
001fc00000
001fc00000
001fc00000
001fc00000
0000000000
0000000000
0000000000
0000000000
001fc00000
001fc00000
001fc00000
001fc00000
0000000000
0000000000
0000000000
0000000000
0000000000
0000000000
0000000000
0000000000
ENDCHAR
STARTCHAR U+00b7
ENCODING 183
SWIDTH 1000 0
DWIDTH 34 0
BBX 34 40 0 -8
BITMAP
0000000000
0000000000
0000000000
0000000000
0000000000
0000000000
0000000000
0000000000
0000000000
0000000000
0000000000
0000000000
0000000000
0000000000
0000000000
0000000000
001fc00000
001fc00000
001fc00000
001fc00000
0000000000
0000000000
0000000000
0000000000
0000000000
0000000000
0000000000
0000000000
0000000000
0000000000
0000000000
0000000000
0000000000
0000000000
0000000000
0000000000
0000000000
0000000000
0000000000
0000000000
ENDCHAR
STARTCHAR U+00A3
ENCODING 163
SWIDTH 1000 0
DWIDTH 34 0
BBX 34 40 0 -8
BITMAP
0000000000
0000000000
0000000000
0000000000
001fffc000
001fffc000
001fffc000
001fffc000
01fc01fc00
01fc01fc00
01fc01fc00
01fc01fc00
01fc000000
01fc000000
01fc000000
01fc000000
fffffc0000
fffffc0000
fffffc0000
fffffc0000
01fc000000
01fc000000
01fc000000
01fc000000
1ffffc0000
1ffffc0000
1ffffc0000
1ffffc0000
fdfc1ffc00
fdfc1ffc00
fdfc1ffc00
fdfc1ffc00
1fc0000000
1fc0000000
1fc0000000
1fc0000000
0000000000
0000000000
0000000000
0000000000
ENDCHAR
STARTCHAR U+2260
ENCODING 8800
SWIDTH 1000 0
DWIDTH 34 0
BBX 34 40 0 -8
BITMAP
0000000000
0000000000
0000000000
0000000000
000001fc00
000001fc00
000001fc00
000001fc00
00001fc000
00001fc000
00001fc000
00001fc000
fffffffc00
fffffffc00
fffffffc00
fffffffc00
001fc00000
001fc00000
001fc00000
001fc00000
fffffffc00
fffffffc00
fffffffc00
fffffffc00
1fc0000000
1fc0000000
1fc0000000
1fc0000000
fc00000000
fc00000000
fc00000000
fc00000000
0000000000
0000000000
0000000000
0000000000
0000000000
0000000000
0000000000
0000000000
ENDCHAR
STARTCHAR U+03C0
ENCODING 960
SWIDTH 1000 0
DWIDTH 34 0
BBX 34 40 0 -8
BITMAP
0000000000
0000000000
0000000000
0000000000
0000000000
0000000000
0000000000
0000000000
0000000000
0000000000
0000000000
0000000000
fffffffc00
fffffffc00
fffffffc00
fffffffc00
01fc1fc000
01fc1fc000
01fc1fc000
01fc1fc000
01fc1fc000
01fc1fc000
01fc1fc000
01fc1fc000
01fc1fc000
01fc1fc000
01fc1fc000
01fc1fc000
1fc01fc000
1fc01fc000
1fc01fc000
1fc01fc000
0000000000
0000000000
0000000000
0000000000
0000000000
0000000000
0000000000
0000000000
ENDCHAR
STARTCHAR U+2265
ENCODING 8805
SWIDTH 1000 0
DWIDTH 34 0
BBX 34 40 0 -8
BITMAP
0000000000
0000000000
0000000000
0000000000
fc00000000
fc00000000
fc00000000
fc00000000
01fc000000
01fc000000
01fc000000
01fc000000
0001fc0000
0001fc0000
0001fc0000
0001fc0000
000001fc00
000001fc00
000001fc00
000001fc00
0001fc0000
0001fc0000
0001fc0000
0001fc0000
01fc000000
01fc000000
01fc000000
01fc000000
fc00000000
fc00000000
fc00000000
fc00000000
fffffffc00
fffffffc00
fffffffc00
fffffffc00
0000000000
0000000000
0000000000
0000000000
ENDCHAR
STARTCHAR U+2264
ENCODING 8804
SWIDTH 1000 0
DWIDTH 34 0
BBX 34 40 0 -8
BITMAP
0000000000
0000000000
0000000000
0000000000
000001fc00
000001fc00
000001fc00
000001fc00
0001fc0000
0001fc0000
0001fc0000
0001fc0000
01fc000000
01fc000000
01fc000000
01fc000000
fc00000000
fc00000000
fc00000000
fc00000000
01fc000000
01fc000000
01fc000000
01fc000000
0001fc0000
0001fc0000
0001fc0000
0001fc0000
000001fc00
000001fc00
000001fc00
000001fc00
fffffffc00
fffffffc00
fffffffc00
fffffffc00
0000000000
0000000000
0000000000
0000000000
ENDCHAR
STARTCHAR U+2502
ENCODING 9474
SWIDTH 1000 0
DWIDTH 34 0
BBX 34 40 0 -8
BITMAP
001fc00000
001fc00000
001fc00000
001fc00000
001fc00000
001fc00000
001fc00000
001fc00000
001fc00000
001fc00000
001fc00000
001fc00000
001fc00000
001fc00000
001fc00000
001fc00000
001fc00000
001fc00000
001fc00000
001fc00000
001fc00000
001fc00000
001fc00000
001fc00000
001fc00000
001fc00000
001fc00000
001fc00000
001fc00000
001fc00000
001fc00000
001fc00000
001fc00000
001fc00000
001fc00000
001fc00000
001fc00000
001fc00000
001fc00000
001fc00000
ENDCHAR
STARTCHAR U+252C
ENCODING 9516
SWIDTH 1000 0
DWIDTH 34 0
BBX 34 40 0 -8
BITMAP
0000000000
0000000000
0000000000
0000000000
0000000000
0000000000
0000000000
0000000000
0000000000
0000000000
0000000000
0000000000
0000000000
0000000000
0000000000
0000000000
ffffffffc0
ffffffffc0
ffffffffc0
ffffffffc0
001fc00000
001fc00000
001fc00000
001fc00000
001fc00000
001fc00000
001fc00000
001fc00000
001fc00000
001fc00000
001fc00000
001fc00000
001fc00000
001fc00000
001fc00000
001fc00000
001fc00000
001fc00000
001fc00000
001fc00000
ENDCHAR
STARTCHAR U+2534
ENCODING 9524
SWIDTH 1000 0
DWIDTH 34 0
BBX 34 40 0 -8
BITMAP
001fc00000
001fc00000
001fc00000
001fc00000
001fc00000
001fc00000
001fc00000
001fc00000
001fc00000
001fc00000
001fc00000
001fc00000
001fc00000
001fc00000
001fc00000
001fc00000
ffffffffc0
ffffffffc0
ffffffffc0
ffffffffc0
0000000000
0000000000
0000000000
0000000000
0000000000
0000000000
0000000000
0000000000
0000000000
0000000000
0000000000
0000000000
0000000000
0000000000
0000000000
0000000000
0000000000
0000000000
0000000000
0000000000
ENDCHAR
STARTCHAR U+2524
ENCODING 9508
SWIDTH 1000 0
DWIDTH 34 0
BBX 34 40 0 -8
BITMAP
001fc00000
001fc00000
001fc00000
001fc00000
001fc00000
001fc00000
001fc00000
001fc00000
001fc00000
001fc00000
001fc00000
001fc00000
001fc00000
001fc00000
001fc00000
001fc00000
ffffc00000
ffffc00000
ffffc00000
ffffc00000
001fc00000
001fc00000
001fc00000
001fc00000
001fc00000
001fc00000
001fc00000
001fc00000
001fc00000
001fc00000
001fc00000
001fc00000
001fc00000
001fc00000
001fc00000
001fc00000
001fc00000
001fc00000
001fc00000
001fc00000
ENDCHAR
STARTCHAR U+251C
ENCODING 9500
SWIDTH 1000 0
DWIDTH 34 0
BBX 34 40 0 -8
BITMAP
001fc00000
001fc00000
001fc00000
001fc00000
001fc00000
001fc00000
001fc00000
001fc00000
001fc00000
001fc00000
001fc00000
001fc00000
001fc00000
001fc00000
001fc00000
001fc00000
001fffffc0
001fffffc0
001fffffc0
001fffffc0
001fc00000
001fc00000
001fc00000
001fc00000
001fc00000
001fc00000
001fc00000
001fc00000
001fc00000
001fc00000
001fc00000
001fc00000
001fc00000
001fc00000
001fc00000
001fc00000
001fc00000
001fc00000
001fc00000
001fc00000
ENDCHAR
STARTCHAR U+23BD
ENCODING 9149
SWIDTH 1000 0
DWIDTH 34 0
BBX 34 40 0 -8
BITMAP
0000000000
0000000000
0000000000
0000000000
0000000000
0000000000
0000000000
0000000000
0000000000
0000000000
0000000000
0000000000
0000000000
0000000000
0000000000
0000000000
0000000000
0000000000
0000000000
0000000000
0000000000
0000000000
0000000000
0000000000
0000000000
0000000000
0000000000
0000000000
0000000000
0000000000
0000000000
0000000000
ffffffffc0
ffffffffc0
ffffffffc0
ffffffffc0
0000000000
0000000000
0000000000
0000000000
ENDCHAR
STARTCHAR U+23BC
ENCODING 9148
SWIDTH 1000 0
DWIDTH 34 0
BBX 34 40 0 -8
BITMAP
0000000000
0000000000
0000000000
0000000000
0000000000
0000000000
0000000000
0000000000
0000000000
0000000000
0000000000
0000000000
0000000000
0000000000
0000000000
0000000000
0000000000
0000000000
0000000000
0000000000
0000000000
0000000000
0000000000
0000000000
ffffffffc0
ffffffffc0
ffffffffc0
ffffffffc0
0000000000
0000000000
0000000000
0000000000
0000000000
0000000000
0000000000
0000000000
0000000000
0000000000
0000000000
0000000000
ENDCHAR
STARTCHAR U+2500
ENCODING 9472
SWIDTH 1000 0
DWIDTH 34 0
BBX 34 40 0 -8
BITMAP
0000000000
0000000000
0000000000
0000000000
0000000000
0000000000
0000000000
0000000000
0000000000
0000000000
0000000000
0000000000
0000000000
0000000000
0000000000
0000000000
ffffffffc0
ffffffffc0
ffffffffc0
ffffffffc0
0000000000
0000000000
0000000000
0000000000
0000000000
0000000000
0000000000
0000000000
0000000000
0000000000
0000000000
0000000000
0000000000
0000000000
0000000000
0000000000
0000000000
0000000000
0000000000
0000000000
ENDCHAR
STARTCHAR U+23BB
ENCODING 9147
SWIDTH 1000 0
DWIDTH 34 0
BBX 34 40 0 -8
BITMAP
0000000000
0000000000
0000000000
0000000000
0000000000
0000000000
0000000000
0000000000
ffffffffc0
ffffffffc0
ffffffffc0
ffffffffc0
0000000000
0000000000
0000000000
0000000000
0000000000
0000000000
0000000000
0000000000
0000000000
0000000000
0000000000
0000000000
0000000000
0000000000
0000000000
0000000000
0000000000
0000000000
0000000000
0000000000
0000000000
0000000000
0000000000
0000000000
0000000000
0000000000
0000000000
0000000000
ENDCHAR
STARTCHAR U+23BA
ENCODING 9146
SWIDTH 1000 0
DWIDTH 34 0
BBX 34 40 0 -8
BITMAP
ffffffffc0
ffffffffc0
ffffffffc0
ffffffffc0
0000000000
0000000000
0000000000
0000000000
0000000000
0000000000
0000000000
0000000000
0000000000
0000000000
0000000000
0000000000
0000000000
0000000000
0000000000
0000000000
0000000000
0000000000
0000000000
0000000000
0000000000
0000000000
0000000000
0000000000
0000000000
0000000000
0000000000
0000000000
0000000000
0000000000
0000000000
0000000000
0000000000
0000000000
0000000000
0000000000
ENDCHAR
STARTCHAR U+253C
ENCODING 9532
SWIDTH 1000 0
DWIDTH 34 0
BBX 34 40 0 -8
BITMAP
001fc00000
001fc00000
001fc00000
001fc00000
001fc00000
001fc00000
001fc00000
001fc00000
001fc00000
001fc00000
001fc00000
001fc00000
001fc00000
001fc00000
001fc00000
001fc00000
ffffffffc0
ffffffffc0
ffffffffc0
ffffffffc0
001fc00000
001fc00000
001fc00000
001fc00000
001fc00000
001fc00000
001fc00000
001fc00000
001fc00000
001fc00000
001fc00000
001fc00000
001fc00000
001fc00000
001fc00000
001fc00000
001fc00000
001fc00000
001fc00000
001fc00000
ENDCHAR
STARTCHAR U+2514
ENCODING 9492
SWIDTH 1000 0
DWIDTH 34 0
BBX 34 40 0 -8
BITMAP
001fc00000
001fc00000
001fc00000
001fc00000
001fc00000
001fc00000
001fc00000
001fc00000
001fc00000
001fc00000
001fc00000
001fc00000
001fc00000
001fc00000
001fc00000
001fc00000
001fffffc0
001fffffc0
001fffffc0
001fffffc0
0000000000
0000000000
0000000000
0000000000
0000000000
0000000000
0000000000
0000000000
0000000000
0000000000
0000000000
0000000000
0000000000
0000000000
0000000000
0000000000
0000000000
0000000000
0000000000
0000000000
ENDCHAR
STARTCHAR U+250C
ENCODING 9484
SWIDTH 1000 0
DWIDTH 34 0
BBX 34 40 0 -8
BITMAP
0000000000
0000000000
0000000000
0000000000
0000000000
0000000000
0000000000
0000000000
0000000000
0000000000
0000000000
0000000000
0000000000
0000000000
0000000000
0000000000
001fffffc0
001fffffc0
001fffffc0
001fffffc0
001fc00000
001fc00000
001fc00000
001fc00000
001fc00000
001fc00000
001fc00000
001fc00000
001fc00000
001fc00000
001fc00000
001fc00000
001fc00000
001fc00000
001fc00000
001fc00000
001fc00000
001fc00000
001fc00000
001fc00000
ENDCHAR
STARTCHAR U+2510
ENCODING 9488
SWIDTH 1000 0
DWIDTH 34 0
BBX 34 40 0 -8
BITMAP
0000000000
0000000000
0000000000
0000000000
0000000000
0000000000
0000000000
0000000000
0000000000
0000000000
0000000000
0000000000
0000000000
0000000000
0000000000
0000000000
ffffc00000
ffffc00000
ffffc00000
ffffc00000
001fc00000
001fc00000
001fc00000
001fc00000
001fc00000
001fc00000
001fc00000
001fc00000
001fc00000
001fc00000
001fc00000
001fc00000
001fc00000
001fc00000
001fc00000
001fc00000
001fc00000
001fc00000
001fc00000
001fc00000
ENDCHAR
STARTCHAR U+2518
ENCODING 9496
SWIDTH 1000 0
DWIDTH 34 0
BBX 34 40 0 -8
BITMAP
001fc00000
001fc00000
001fc00000
001fc00000
001fc00000
001fc00000
001fc00000
001fc00000
001fc00000
001fc00000
001fc00000
001fc00000
001fc00000
001fc00000
001fc00000
001fc00000
ffffc00000
ffffc00000
ffffc00000
ffffc00000
0000000000
0000000000
0000000000
0000000000
0000000000
0000000000
0000000000
0000000000
0000000000
0000000000
0000000000
0000000000
0000000000
0000000000
0000000000
0000000000
0000000000
0000000000
0000000000
0000000000
ENDCHAR
STARTCHAR U+240B
ENCODING 9227
SWIDTH 1000 0
DWIDTH 34 0
BBX 34 40 0 -8
BITMAP
0000000000
0000000000
0000000000
0000000000
fc01fc0000
fc01fc0000
fc01fc0000
fc01fc0000
fc01fc0000
fc01fc0000
fc01fc0000
fc01fc0000
1fdfc00000
1fdfc00000
1fdfc00000
1fdfc00000
1fdfc00000
1fdfc00000
1fdfc00000
1fdfc00000
01fffffc00
01fffffc00
01fffffc00
01fffffc00
0001fc0000
0001fc0000
0001fc0000
0001fc0000
0001fc0000
0001fc0000
0001fc0000
0001fc0000
0001fc0000
0001fc0000
0001fc0000
0001fc0000
0001fc0000
0001fc0000
0001fc0000
0001fc0000
ENDCHAR
STARTCHAR U+2424
ENCODING 9252
SWIDTH 1000 0
DWIDTH 34 0
BBX 34 40 0 -8
BITMAP
0000000000
0000000000
0000000000
0000000000
fc01fc0000
fc01fc0000
fc01fc0000
fc01fc0000
ffc1fc0000
ffc1fc0000
ffc1fc0000
ffc1fc0000
fdfdfc0000
fdfdfc0000
fdfdfc0000
fdfdfc0000
fc1ffc0000
fc1ffc0000
fc1ffc0000
fc1ffc0000
fc1ffc0000
fc1ffc0000
fc1ffc0000
fc1ffc0000
001fc00000
001fc00000
001fc00000
001fc00000
001fc00000
001fc00000
001fc00000
001fc00000
001fc00000
001fc00000
001fc00000
001fc00000
001ffffc00
001ffffc00
001ffffc00
001ffffc00
ENDCHAR
STARTCHAR U+00B1
ENCODING 177
SWIDTH 1000 0
DWIDTH 34 0
BBX 34 40 0 -8
BITMAP
0000000000
0000000000
0000000000
0000000000
0000000000
0000000000
0000000000
0000000000
001fc00000
001fc00000
001fc00000
001fc00000
001fc00000
001fc00000
001fc00000
001fc00000
fffffffc00
fffffffc00
fffffffc00
fffffffc00
001fc00000
001fc00000
001fc00000
001fc00000
001fc00000
001fc00000
001fc00000
001fc00000
fffffffc00
fffffffc00
fffffffc00
fffffffc00
0000000000
0000000000
0000000000
0000000000
0000000000
0000000000
0000000000
0000000000
ENDCHAR
STARTCHAR U+00B0
ENCODING 176
SWIDTH 1000 0
DWIDTH 34 0
BBX 34 40 0 -8
BITMAP
0000000000
0000000000
0000000000
0000000000
01fffc0000
01fffc0000
01fffc0000
01fffc0000
1fc01fc000
1fc01fc000
1fc01fc000
1fc01fc000
01fffc0000
01fffc0000
01fffc0000
01fffc0000
0000000000
0000000000
0000000000
0000000000
0000000000
0000000000
0000000000
0000000000
0000000000
0000000000
0000000000
0000000000
0000000000
0000000000
0000000000
0000000000
0000000000
0000000000
0000000000
0000000000
0000000000
0000000000
0000000000
0000000000
ENDCHAR
STARTCHAR U+240A
ENCODING 9226
SWIDTH 1000 0
DWIDTH 34 0
BBX 34 40 0 -8
BITMAP
0000000000
0000000000
0000000000
0000000000
fc00000000
fc00000000
fc00000000
fc00000000
fc00000000
fc00000000
fc00000000
fc00000000
fc00000000
fc00000000
fc00000000
fc00000000
fc00000000
fc00000000
fc00000000
fc00000000
fffffffc00
fffffffc00
fffffffc00
fffffffc00
001fc00000
001fc00000
001fc00000
001fc00000
001fffc000
001fffc000
001fffc000
001fffc000
001fc00000
001fc00000
001fc00000
001fc00000
001fc00000
001fc00000
001fc00000
001fc00000
ENDCHAR
STARTCHAR U+240D
ENCODING 9229
SWIDTH 1000 0
DWIDTH 34 0
BBX 34 40 0 -8
BITMAP
0000000000
0000000000
0000000000
0000000000
1fffc00000
1fffc00000
1fffc00000
1fffc00000
fc00000000
fc00000000
fc00000000
fc00000000
fc00000000
fc00000000
fc00000000
fc00000000
fc00000000
fc00000000
fc00000000
fc00000000
1fffffc000
1fffffc000
1fffffc000
1fffffc000
001fc1fc00
001fc1fc00
001fc1fc00
001fc1fc00
001fffc000
001fffc000
001fffc000
001fffc000
001fc1fc00
001fc1fc00
001fc1fc00
001fc1fc00
001fc1fc00
001fc1fc00
001fc1fc00
001fc1fc00
ENDCHAR
STARTCHAR U+240C
ENCODING 9228
SWIDTH 1000 0
DWIDTH 34 0
BBX 34 40 0 -8
BITMAP
0000000000
0000000000
0000000000
0000000000
ffffc00000
ffffc00000
ffffc00000
ffffc00000
fc00000000
fc00000000
fc00000000
fc00000000
fffc000000
fffc000000
fffc000000
fffc000000
fc00000000
fc00000000
fc00000000
fc00000000
fc1ffffc00
fc1ffffc00
fc1ffffc00
fc1ffffc00
001fc00000
001fc00000
001fc00000
001fc00000
001fffc000
001fffc000
001fffc000
001fffc000
001fc00000
001fc00000
001fc00000
001fc00000
001fc00000
001fc00000
001fc00000
001fc00000
ENDCHAR
STARTCHAR U+2409
ENCODING 9225
SWIDTH 1000 0
DWIDTH 34 0
BBX 34 40 0 -8
BITMAP
0000000000
0000000000
0000000000
0000000000
fc1fc00000
fc1fc00000
fc1fc00000
fc1fc00000
fc1fc00000
fc1fc00000
fc1fc00000
fc1fc00000
ffffc00000
ffffc00000
ffffc00000
ffffc00000
fc1fc00000
fc1fc00000
fc1fc00000
fc1fc00000
fdfffffc00
fdfffffc00
fdfffffc00
fdfffffc00
0001fc0000
0001fc0000
0001fc0000
0001fc0000
0001fc0000
0001fc0000
0001fc0000
0001fc0000
0001fc0000
0001fc0000
0001fc0000
0001fc0000
0001fc0000
0001fc0000
0001fc0000
0001fc0000
ENDCHAR
STARTCHAR U+2592
ENCODING 9618
SWIDTH 1000 0
DWIDTH 34 0
BBX 34 40 0 -8
BITMAP
0000000000
0000000000
0000000000
0000000000
fc1fc1fc00
fc1fc1fc00
fc1fc1fc00
fc1fc1fc00
1fc01fc000
1fc01fc000
1fc01fc000
1fc01fc000
fc1fc1fc00
fc1fc1fc00
fc1fc1fc00
fc1fc1fc00
1fc01fc000
1fc01fc000
1fc01fc000
1fc01fc000
fc1fc1fc00
fc1fc1fc00
fc1fc1fc00
fc1fc1fc00
1fc01fc000
1fc01fc000
1fc01fc000
1fc01fc000
fc1fc1fc00
fc1fc1fc00
fc1fc1fc00
fc1fc1fc00
0000000000
0000000000
0000000000
0000000000
0000000000
0000000000
0000000000
0000000000
ENDCHAR
STARTCHAR U+25C6
ENCODING 9670
SWIDTH 1000 0
DWIDTH 34 0
BBX 34 40 0 -8
BITMAP
0000000000
0000000000
0000000000
0000000000
001fc00000
001fc00000
001fc00000
001fc00000
01fffc0000
01fffc0000
01fffc0000
01fffc0000
1fffffc000
1fffffc000
1fffffc000
1fffffc000
fffffffc00
fffffffc00
fffffffc00
fffffffc00
1fffffc000
1fffffc000
1fffffc000
1fffffc000
01fffc0000
01fffc0000
01fffc0000
01fffc0000
001fc00000
001fc00000
001fc00000
001fc00000
0000000000
0000000000
0000000000
0000000000
0000000000
0000000000
0000000000
0000000000
ENDCHAR
STARTCHAR U+0020
ENCODING 32
SWIDTH 1000 0
DWIDTH 34 0
BBX 34 40 0 -8
BITMAP
0000000000
0000000000
0000000000
0000000000
0000000000
0000000000
0000000000
0000000000
0000000000
0000000000
0000000000
0000000000
0000000000
0000000000
0000000000
0000000000
0000000000
0000000000
0000000000
0000000000
0000000000
0000000000
0000000000
0000000000
0000000000
0000000000
0000000000
0000000000
0000000000
0000000000
0000000000
0000000000
0000000000
0000000000
0000000000
0000000000
0000000000
0000000000
0000000000
0000000000
ENDCHAR
ENDFONT
